<svg xmlns="http://www.w3.org/2000/svg" width="24" height="19" viewBox="0 0 24 19"><defs><style>.a{fill:#c1a575;fill-rule:evenodd;}</style></defs><path class="a" d="M22.765,28.67A4.044,4.044,0,0,1,21.383,31.7,4.6,4.6,0,0,1,18.122,33a5.477,5.477,0,0,1-4.538-1.975A8.521,8.521,0,0,1,12,25.557a10.338,10.338,0,0,1,2.725-6.55A17.759,17.759,0,0,1,21.289,14l1.181,1.921a14.9,14.9,0,0,0-4.753,3.465,8.312,8.312,0,0,0-1.988,4.791h1.5a8.14,8.14,0,0,1,2.713.378,4.331,4.331,0,0,1,1.69,1.056,3.777,3.777,0,0,1,.875,1.435,5.272,5.272,0,0,1,.254,1.624ZM36,28.67A4.04,4.04,0,0,1,34.617,31.7a4.6,4.6,0,0,1-3.26,1.3,5.477,5.477,0,0,1-4.538-1.975,8.521,8.521,0,0,1-1.584-5.468,10.338,10.338,0,0,1,2.725-6.55A17.759,17.759,0,0,1,34.524,14l1.181,1.921a14.9,14.9,0,0,0-4.753,3.465,8.312,8.312,0,0,0-1.988,4.791h1.5a8.14,8.14,0,0,1,2.713.378,4.331,4.331,0,0,1,1.69,1.056,3.753,3.753,0,0,1,.873,1.435A5.224,5.224,0,0,1,36,28.67Z" transform="translate(-12 -14)"/></svg>