<svg class="toggle" xmlns="http://www.w3.org/2000/svg" width="20.667" height="20.667" fill="#fff" viewBox="0 0 20.667 20.667">
                    <path d="M12.056,0H.861a.861.861,0,0,0,0,1.722H12.056a6.889,6.889,0,0,1,0,13.778H2.94l1.974-1.974A.861.861,0,1,0,3.7,12.308L.252,15.752c-.02.02-.039.041-.057.063l-.023.031c-.009.012-.019.024-.027.037s-.015.025-.023.037-.014.023-.021.035-.013.026-.019.039-.012.025-.017.037-.01.026-.014.039-.01.027-.014.041-.007.026-.01.039-.008.028-.01.043,0,.03-.007.046,0,.025-.005.038a.867.867,0,0,0,0,.17c0,.013,0,.025.005.038s0,.03.007.046.007.028.01.043.006.026.01.039.009.027.014.041.009.026.014.039.011.025.017.037.012.026.019.039.014.023.021.035.015.025.023.038.018.025.027.037l.023.031q.027.033.057.063h0L3.7,20.415A.861.861,0,0,0,4.914,19.2L2.94,17.222h9.116A8.611,8.611,0,1,0,12.056,0Z"></path>
                    </svg>