<?xml version="1.0" encoding="utf-8"?>
<!-- Generator: Adobe Illustrator 26.3.1, SVG Export Plug-In . SVG Version: 6.00 Build 0)  -->
<svg version="1.1" id="Camada_1" xmlns="http://www.w3.org/2000/svg" xmlns:xlink="http://www.w3.org/1999/xlink" x="0px" y="0px"
	 viewBox="0 0 148 148" style="enable-background:new 0 0 148 148;" xml:space="preserve">
<style type="text/css">
	.st0{fill:none;}
	.st1{fill:#C4A575;}
	.st2{fill:#FFFFFF;}
</style>
<g>
	<rect class="st0" width="148" height="148"/>
	<path id="Caminho_1776" class="st1" d="M148,74c0,40.9-33.1,74-74,74S0,114.9,0,74S33.1,0,74,0S148,33.1,148,74"/>
	<path id="Caminho_1777" class="st2" d="M26.7,34.8c0.2,0.4,0.4,0.8,0.4,1.3c0.1,0.5,0,0.9-0.1,1.4s-0.4,0.9-0.7,1.3L24.7,41
		l-5.5-4.1l1.6-2.2c0.3-0.4,0.7-0.8,1.1-1s0.8-0.4,1.3-0.5c0.4-0.1,0.9-0.1,1.3,0c0.5,0.1,0.9,0.3,1.2,0.6l0,0
		C26.2,34,26.5,34.4,26.7,34.8 M24.8,35c-0.2-0.2-0.5-0.3-0.8-0.4c-0.3-0.1-0.5-0.1-0.8-0.1s-0.5,0.1-0.7,0.3s-0.5,0.4-0.6,0.6
		l-0.7,0.9l3.3,2.5l0.7-0.9c0.2-0.2,0.3-0.5,0.4-0.8s0.1-0.5,0.1-0.8s-0.1-0.5-0.3-0.7C25.3,35.4,25.1,35.2,24.8,35L24.8,35z"/>
	<path id="Caminho_1778" class="st2" d="M29.3,35l-5-4.7l3.6-3.8l1,0.9l-2.5,2.7l1,1l2.2-2.4l1,0.9L28.3,32l1.1,1l2.6-2.7l1,0.9
		L29.3,35z"/>
	<path id="Caminho_1779" class="st2" d="M36.7,26.4c0.1,0.3,0.1,0.6,0,0.8c-0.1,0.3-0.2,0.6-0.3,0.8c-0.2,0.3-0.4,0.6-0.7,0.8
		c-0.4,0.3-0.9,0.6-1.4,0.8c-0.5,0.2-1,0.3-1.6,0.3v-1.4c0.4,0,0.8-0.1,1.1-0.2c0.4-0.1,0.7-0.3,1-0.5c0.2-0.2,0.4-0.4,0.4-0.6
		c0.1-0.2,0-0.4-0.1-0.5l0,0c-0.1-0.1-0.1-0.1-0.2-0.2c-0.1,0-0.2,0-0.3,0c-0.2,0-0.3,0.1-0.5,0.1c-0.2,0.1-0.4,0.2-0.7,0.3
		c-0.3,0.2-0.6,0.3-0.9,0.4c-0.3,0.1-0.5,0.2-0.8,0.2c-0.2,0-0.5,0-0.7-0.1c-0.3-0.1-0.5-0.3-0.7-0.5l0,0c-0.2-0.2-0.3-0.5-0.4-0.8
		s-0.1-0.5,0-0.8c0-0.3,0.1-0.6,0.3-0.8c0.2-0.3,0.4-0.5,0.6-0.7c0.4-0.3,0.8-0.6,1.2-0.7c0.4-0.2,0.9-0.2,1.3-0.3l0.1,1.4
		c-0.3,0-0.7,0.1-1,0.2s-0.6,0.2-0.8,0.4c-0.2,0.1-0.3,0.3-0.4,0.6c0,0.2,0,0.3,0.1,0.5l0,0c0.1,0.1,0.1,0.1,0.2,0.2
		c0.1,0,0.2,0,0.3,0c0.2,0,0.3-0.1,0.5-0.2s0.4-0.2,0.7-0.3c0.3-0.1,0.6-0.3,0.9-0.4c0.3-0.1,0.5-0.1,0.8-0.1c0.2,0,0.5,0.1,0.7,0.2
		s0.4,0.3,0.6,0.5l0,0C36.5,25.8,36.6,26.1,36.7,26.4"/>
	<path id="Caminho_1780" class="st2" d="M42.7,22.9c-0.1,0.2-0.2,0.5-0.3,0.7s-0.3,0.4-0.5,0.6s-0.5,0.4-0.7,0.6
		c-0.4,0.3-0.8,0.5-1.3,0.6c-0.9,0.2-1.8,0-2.6-0.5c-0.4-0.3-0.7-0.6-1-1l0,0c-0.5-0.8-0.7-1.7-0.6-2.7c0.1-0.5,0.3-0.9,0.5-1.3
		c0.3-0.4,0.6-0.8,1.1-1c0.2-0.2,0.5-0.3,0.8-0.4c0.2-0.1,0.5-0.2,0.7-0.2s0.5-0.1,0.7-0.1s0.4,0,0.7,0.1L40,19.6
		c-0.3-0.1-0.7-0.1-1,0c-0.3,0-0.6,0.2-0.9,0.4c-0.5,0.3-0.8,0.8-0.8,1.3c0,0.3,0,0.5,0,0.8c0.1,0.3,0.2,0.5,0.3,0.8l0,0
		c0.2,0.2,0.4,0.4,0.6,0.6c0.2,0.2,0.5,0.3,0.7,0.3c0.5,0.1,1.1,0,1.6-0.3c0.3-0.2,0.5-0.4,0.7-0.7c0.2-0.3,0.3-0.6,0.3-0.9l1.3,0.3
		C42.9,22.4,42.8,22.6,42.7,22.9"/>
	<path id="Caminho_1781" class="st2" d="M49.5,17.7c0.1,0.9-0.3,1.9-0.9,2.6c-0.3,0.4-0.7,0.7-1.2,0.9c-0.4,0.2-0.9,0.4-1.4,0.4
		s-0.9,0-1.4-0.2c-0.4-0.1-0.8-0.4-1.2-0.7c-0.4-0.3-0.7-0.7-0.9-1.1l0,0c-0.2-0.4-0.3-0.9-0.4-1.4c-0.1-0.9,0.3-1.9,0.9-2.6
		c0.3-0.4,0.7-0.7,1.2-0.9c0.4-0.2,0.9-0.4,1.4-0.4s0.9,0,1.4,0.2c0.4,0.1,0.8,0.4,1.2,0.7s0.7,0.7,0.9,1.1l0,0
		C49.3,16.7,49.5,17.2,49.5,17.7 M47.7,17c-0.1-0.3-0.3-0.5-0.5-0.7c-0.4-0.4-0.9-0.6-1.5-0.5c-0.3,0-0.6,0.1-0.8,0.2
		c-0.3,0.1-0.5,0.3-0.7,0.5s-0.3,0.4-0.4,0.7c-0.1,0.3-0.1,0.5-0.1,0.8s0.1,0.6,0.2,0.8l0,0c0.1,0.3,0.3,0.5,0.5,0.7
		c0.4,0.4,0.9,0.6,1.5,0.5c0.3,0,0.6-0.1,0.8-0.2c0.3-0.1,0.5-0.3,0.7-0.5s0.3-0.4,0.4-0.7c0.1-0.3,0.1-0.5,0.1-0.8
		C47.9,17.6,47.9,17.3,47.7,17L47.7,17z"/>
	<path id="Caminho_1782" class="st2" d="M56.3,17.4l-4.6-3.1l1.4,4.1L51.7,19l-2.3-6.5l1.3-0.5l4.4,3l-1.4-4l1.4-0.5l2.2,6.5
		L56.3,17.4z"/>
	<path id="Caminho_1783" class="st2" d="M60.8,10.6L62,16l-1.5,0.3l-1.2-5.4l-2.1,0.5L57,10l5.6-1.2l0.3,1.4L60.8,10.6z"/>
	<path id="Caminho_1784" class="st2" d="M71.5,12.6c-0.3,0.9-0.9,1.6-1.7,2.1c-0.9,0.5-2,0.6-2.9,0.3c-0.4-0.1-0.9-0.4-1.2-0.6
		c-0.4-0.3-0.6-0.6-0.9-1c-0.2-0.4-0.4-0.9-0.4-1.4l0,0c0-0.5,0-1,0.1-1.4c0.3-0.9,0.9-1.6,1.7-2.1c0.9-0.5,2-0.6,2.9-0.3
		c0.4,0.1,0.9,0.4,1.2,0.6c0.4,0.3,0.6,0.6,0.9,1c0.2,0.4,0.4,0.9,0.4,1.4l0,0C71.7,11.7,71.7,12.2,71.5,12.6 M70.1,11.4
		c0-0.3-0.1-0.6-0.2-0.8c-0.2-0.5-0.7-0.9-1.2-1c-0.3-0.1-0.6-0.1-0.9-0.1S67.2,9.6,67,9.7c-0.2,0.1-0.4,0.3-0.6,0.5
		s-0.3,0.5-0.4,0.7c-0.1,0.3-0.1,0.6-0.1,0.8l0,0c0,0.3,0.1,0.6,0.2,0.8s0.3,0.5,0.5,0.6c0.2,0.2,0.4,0.3,0.7,0.4
		c0.3,0.1,0.6,0.1,0.9,0.1s0.6-0.1,0.8-0.2c0.2-0.1,0.4-0.3,0.6-0.5s0.3-0.5,0.4-0.7S70.1,11.7,70.1,11.4L70.1,11.4z"/>
	
		<rect id="Retângulo_1763" x="73.6" y="10.6" transform="matrix(4.799783e-02 -0.9988 0.9988 4.799783e-02 62.01 87.785)" class="st2" width="6.9" height="1.5"/>
	<path id="Caminho_1785" class="st2" d="M84.6,15.6l0.7-4.5L83,13.7l0,0l-1.5-3.2l-0.6,4.4l-1.5-0.2l1-6.8L82,8.1l1.4,3.2l2.2-2.6
		L87,9l-1,6.8L84.6,15.6z"/>
	<path id="Caminho_1786" class="st2" d="M93.4,14.3c-0.2,0.2-0.5,0.4-0.8,0.6c-0.3,0.1-0.6,0.2-1,0.2s-0.7,0-1.1-0.1l-1.1-0.3
		l-0.6,2l-1.5-0.4l1.8-6.6l2.7,0.8c0.4,0.1,0.7,0.3,1,0.5s0.5,0.4,0.7,0.7s0.3,0.6,0.3,0.9c0,0.3,0,0.7-0.1,1l0,0
		C93.8,13.7,93.7,14,93.4,14.3 M92.4,12.9c0.1-0.3,0.1-0.6-0.1-0.8c-0.2-0.3-0.5-0.4-0.8-0.5l-1.1-0.3l-0.6,2l1.2,0.3
		c0.3,0.1,0.6,0.1,0.9-0.1C92.2,13.5,92.4,13.2,92.4,12.9L92.4,12.9z"/>
	<path id="Caminho_1787" class="st2" d="M93.6,18l2.6-6.4l4.8,1.9l-0.5,1.3L97,13.4l-0.5,1.3l3,1.2L99,17.1l-3-1.2l-0.5,1.4l3.5,1.4
		L98.5,20L93.6,18z"/>
	<path id="Caminho_1788" class="st2" d="M103.2,22.4l-0.3-2.6l-1.1-0.6l-1,1.9l-1.3-0.7l3.3-6.1l2.8,1.5c0.6,0.3,1.1,0.8,1.4,1.4
		c0.2,0.6,0.1,1.3-0.2,1.8l0,0c-0.2,0.4-0.6,0.8-1,1s-0.9,0.2-1.3,0.2l0.3,3L103.2,22.4z M105.4,18.4c0.2-0.2,0.2-0.5,0.1-0.8
		s-0.4-0.5-0.7-0.6l-1.3-0.7l-0.9,1.7l1.4,0.7c0.3,0.2,0.6,0.2,0.9,0.2C105.1,18.9,105.3,18.7,105.4,18.4L105.4,18.4z"/>
	<path id="Caminho_1789" class="st2" d="M111.8,25.6c-0.4,0.2-0.8,0.4-1.2,0.5c-0.5,0.1-0.9,0-1.4-0.1s-1-0.3-1.4-0.6l-2.2-1.5
		l4-5.6l2.2,1.5c0.4,0.3,0.8,0.6,1.1,1.1c0.3,0.4,0.4,0.8,0.5,1.3c0.1,0.4,0.1,0.9,0,1.3c-0.1,0.5-0.3,0.9-0.6,1.3l0,0
		C112.5,25,112.2,25.3,111.8,25.6 M111.5,23.7c0.2-0.2,0.3-0.5,0.4-0.8s0.1-0.5,0-0.8c0-0.3-0.1-0.5-0.3-0.7
		c-0.2-0.2-0.4-0.4-0.6-0.6l-1-0.7l-2.4,3.4l1,0.7c0.2,0.2,0.5,0.3,0.8,0.4s0.5,0.1,0.8,0c0.3,0,0.5-0.1,0.7-0.3
		C111.1,24.1,111.3,23.9,111.5,23.7L111.5,23.7z"/>
	<path id="Caminho_1790" class="st2" d="M111.7,28.3l4.5-5.3l1.2,1l-4.5,5.3L111.7,28.3z M116.6,22.7l2-0.6l0.6,1.3l-1.7,0.1
		L116.6,22.7z"/>
	<path id="Caminho_1791" class="st2" d="M116.6,32.8l-0.9-1l3-6.9l1.2,1.2l-2.2,4.7l4.7-2.1l1.2,1.2L116.6,32.8z"/>
	<path id="Caminho_1792" class="st2" d="M119.1,35.5l5.4-4.3l3.2,4.1l-1.1,0.8l-2.3-2.9l-1.1,0.9l2,2.6l-1.1,0.8l-2-2.6l-1.1,0.9
		l2.3,2.9l-1.1,0.8L119.1,35.5z"/>
	<path id="Caminho_1793" class="st2" d="M123,40.6l5.8-3.7l0.8,1.3l-4.7,2.9l1.8,2.9l-1.2,0.7L123,40.6z"/>
	<path id="Caminho_1797" class="st2" d="M36,127.8l3-3.9l-3.6,1.3l0,0l0.2-3.8l-3,3.9l-1.3-1l4.6-6l1.4,1.1l-0.3,3.7l3.5-1.3
		l1.4,1.1l-4.6,6L36,127.8z"/>
	<path id="Caminho_1798" class="st2" d="M44.7,133l0.2-1.8l-2.8-1.5l-1.4,1.2l-1.5-0.8l6.5-5.1l1.3,0.7l-0.8,8.2L44.7,133z
		 M45.4,127l-2,1.7l1.8,1L45.4,127z"/>
	<path id="Caminho_1799" class="st2" d="M53.5,130.2l-2.1,5.6l-1.6-0.6l2.1-5.6l-2.1-0.8l0.5-1.4l5.8,2.2l-0.5,1.4L53.5,130.2z"/>
	<path id="Caminho_1800" class="st2" d="M60,138.4l-1-2.7l-1.3-0.3l-0.6,2.3l-1.6-0.4l1.8-7.3l3.4,0.8c0.7,0.1,1.4,0.5,1.9,1.1
		c0.4,0.6,0.5,1.3,0.3,2l0,0c-0.1,0.5-0.4,1-0.8,1.3c-0.4,0.3-0.8,0.5-1.3,0.5l1.2,3.1L60,138.4z M61.2,133.5c0.1-0.3,0-0.6-0.1-0.9
		c-0.2-0.3-0.5-0.4-0.9-0.5l-1.6-0.4l-0.5,2.1l1.6,0.4c0.3,0.1,0.7,0.1,1-0.1C61,134.1,61.1,133.8,61.2,133.5L61.2,133.5z"/>
	
		<rect id="Retângulo_1764" x="61.5" y="134.6" transform="matrix(0.14 -0.9902 0.9902 0.14 -77.9997 181.0874)" class="st2" width="7.5" height="1.7"/>
	<path id="Caminho_1801" class="st2" d="M74.1,139.2c-0.5,0.3-1,0.5-1.5,0.6c-0.3,0-0.7,0.1-1,0c-0.5,0-1-0.1-1.5-0.4
		c-0.9-0.4-1.6-1.2-1.9-2.1c-0.2-0.5-0.3-1-0.2-1.5l0,0c0-1,0.5-2,1.2-2.7c0.4-0.3,0.8-0.6,1.3-0.8s1.1-0.3,1.6-0.2
		c0.3,0,0.6,0.1,1,0.1c0.3,0.1,0.5,0.2,0.8,0.3c0.2,0.1,0.4,0.2,0.6,0.4s0.4,0.3,0.5,0.5l-1.1,1.2c-0.3-0.3-0.6-0.5-0.9-0.7
		s-0.7-0.3-1-0.3c-0.6,0-1.2,0.2-1.6,0.6c-0.2,0.2-0.4,0.5-0.5,0.7c-0.1,0.3-0.2,0.6-0.2,0.9l0,0c0,0.3,0,0.6,0.1,0.9
		c0.1,0.3,0.2,0.5,0.4,0.8c0.4,0.5,0.9,0.7,1.5,0.8c0.4,0,0.8,0,1.1-0.2c0.3-0.2,0.6-0.4,0.9-0.6l1,1.1
		C74.5,138.9,74.3,139.1,74.1,139.2"/>
	<path id="Caminho_1802" class="st2" d="M83,137.5c-0.1,0.4-0.3,0.8-0.6,1.1c-0.3,0.3-0.6,0.6-1,0.7c-0.4,0.2-0.9,0.3-1.3,0.3
		c-1.6,0.3-3.2-0.7-3.5-2.4c0-0.2-0.1-0.4-0.1-0.7l-0.4-4.3l1.7-0.2l0.4,4.2c0,0.5,0.2,1,0.6,1.3c0.3,0.3,0.8,0.4,1.2,0.4
		c0.4,0,0.9-0.2,1.1-0.6c0.3-0.4,0.4-0.9,0.3-1.4l-0.4-4.3l1.7-0.2l0.4,4.2C83.2,136.5,83.1,137,83,137.5"/>
	<path id="Caminho_1803" class="st2" d="M85.9,138.8l-1.6-7.4l1.6-0.4l1.3,5.9l3.7-0.8l0.3,1.5L85.9,138.8z"/>
	<path id="Caminho_1804" class="st2" d="M93.2,137l-2.5-7.1l5.4-1.9l0.5,1.4l-3.8,1.3l0.5,1.4l3.4-1.2l0.5,1.4l-3.4,1.2l0.5,1.5
		l3.9-1.3l0.5,1.4L93.2,137z"/>
	
		<rect id="Retângulo_1765" x="98.7" y="129.9" transform="matrix(0.9071 -0.4209 0.4209 0.9071 -45.6917 54.3818)" class="st2" width="3.3" height="1.6"/>
	<path id="Caminho_1805" class="st2" d="M109.1,128.3c0,0.3,0,0.6-0.1,0.9c-0.1,0.3-0.3,0.6-0.5,0.8c-0.3,0.3-0.6,0.5-0.9,0.7
		c-0.5,0.3-1,0.5-1.6,0.6s-1.2,0.1-1.8,0l0.2-1.5c0.4,0.1,0.8,0.1,1.3,0c0.4,0,0.8-0.2,1.2-0.4c0.3-0.1,0.5-0.3,0.6-0.6
		c0.1-0.2,0.1-0.4,0-0.6l0,0c0-0.1-0.1-0.2-0.2-0.2c-0.1-0.1-0.2-0.1-0.3-0.1c-0.2,0-0.3,0-0.5,0.1c-0.3,0.1-0.5,0.1-0.8,0.2
		c-0.3,0.1-0.7,0.2-1.1,0.3c-0.3,0.1-0.6,0.1-0.9,0c-0.3,0-0.5-0.1-0.8-0.3s-0.5-0.4-0.6-0.7l0,0c-0.2-0.3-0.3-0.6-0.3-0.9
		s0-0.6,0.1-0.9s0.3-0.6,0.5-0.8c0.2-0.3,0.5-0.5,0.8-0.7c0.4-0.3,0.9-0.5,1.4-0.6s1-0.1,1.5,0l-0.1,1.5c-0.4,0-0.8,0-1.1,0
		c-0.3,0-0.6,0.2-0.9,0.3c-0.2,0.1-0.4,0.3-0.5,0.5s-0.1,0.4,0,0.5l0,0c0.1,0.1,0.1,0.2,0.2,0.2c0.1,0.1,0.2,0.1,0.3,0.1
		c0.2,0,0.4,0,0.5-0.1c0.2-0.1,0.5-0.1,0.8-0.2s0.7-0.2,1.1-0.2c0.3,0,0.6,0,0.9,0s0.5,0.1,0.7,0.3c0.2,0.2,0.4,0.4,0.6,0.7l0,0
		C108.9,127.7,109,128,109.1,128.3"/>
	<path id="Caminho_1806" class="st2" d="M111.8,128l-4.6-6l4.5-3.4l0.9,1.2l-3.2,2.5l0.9,1.2l2.8-2.2l0.9,1.2l-2.8,2.2l1,1.3
		l3.3-2.5l0.9,1.2L111.8,128z"/>
	<path id="Caminho_1829" class="st2" d="M28.2,117.4C9.7,97.8,5.7,68.5,18.2,44.6l0.5,0.3c-12.4,23.7-8.4,52.7,10,72.1L28.2,117.4z"
		/>
	<path id="Caminho_1830" class="st2" d="M120.7,116.3l-0.4-0.4c16.5-18.2,20.8-44.4,11-66.9l0.5-0.2
		C141.7,71.5,137.4,97.9,120.7,116.3"/>
</g>
</svg>
