<svg xmlns="http://www.w3.org/2000/svg" xmlns:xlink="http://www.w3.org/1999/xlink" width="52.555" height="91.481" viewBox="0 0 52.555 91.481"><defs><style>.a{fill:none;}.b{clip-path:url(#a);}.c{fill:#8a8c8e;}.c,.d,.e,.f,.g,.h,.i,.j,.k,.l,.m{fill-rule:evenodd;}.d{fill:#c7c8ca;}.e{fill:#8b714b;}.f{fill:#c6a06c;}.h{fill:#b1101a;}.i{fill:#00386c;}.j{fill:#005496;}.k{fill:#0066b3;}.l{fill:#004b88;}.m,.n{fill:#fff;}</style><clipPath id="a"><rect class="a" width="52.555" height="91.481"/></clipPath></defs><g transform="translate(0 0)"><g class="b"><path class="c" d="M57.873,18.8v-.964l-.956-1.253-.8.691-.145-.185.474-.394v-.8L55.022,14.2c-.281.321-.883.394-1.55-.217.209-.072.281-.8.169-.916a.924.924,0,0,0,.466-.8c.972-.233,0-1.606-.442-.482-.514-.217-.867-.1-1.012.466-.538-.04-.948-.1-1.028.434a1.285,1.285,0,0,1-.281.53,2.779,2.779,0,0,1-1.261.8,1.076,1.076,0,0,0-.458,1.2,1.092,1.092,0,0,0-1.7.506,8.168,8.168,0,0,1-.891,1.108.747.747,0,0,1-.4.209c-.193,0-.185-.088-.434,0-.458-.048-.626.056-.586.289a.594.594,0,0,0-.329.723,4.674,4.674,0,0,1-1.148,1.486,32.625,32.625,0,0,1-3.068,2.112L31.78,27.178h7.4c2.257-2.586,4.152-5.975,7.228-7.308.345-.128.313-.1.466-.088.313,0,.506-.667.8-.145l.048,1.237,1.494,1.911.8-.691.217.265-.361.273-.137.8.98,1.285,1.309-1.044v-.8l-.217-.305.385-.361.61.8,1.181-.98v-.755L53,20l-.755.642-.209-.209L52.556,20v-.7l-.305-.442.217-.2.675.8.8-.651.153.177-.394.369v.883l.964,1.269,1.221-1v-.932l-.112-.145.273-.249.53.691Z" transform="translate(-6.258 -2.234)"/><path class="d" d="M58.2,17.98l-.924-1.148-.8.675-.594-.723.8-.739-1.285-1.606L48.52,20.357l1.229,1.606.7-.562.642.8-.707.57.851,1.116,1.028-.8-.578-.731,1.02-.916.57.8.916-.8-.8-1.116-.8.683-.626-.8.8-.683-.683-.867L53,17.9l.7.851.7-.57.6.731-.7.61.875,1.173,1.028-.859-.594-.8.98-.8.562.683Zm0,.8-1.164,1-.514-.7-.394.337-.353-.434.8-.675.578.7,1.02-.875Zm-1.976,1.076V20.5l-1.108.907-.867-1.148v-.739l.948,1.261Zm.554-3.734v.642l-.426.361-.321-.361Zm-3.919,3.389v.554l-.466.353-.233-.281Zm2.032-.723-.3.249-.209-.273-.8.667-.683-.875L52.5,18.9l-.249-.321.755-.626.7.843.691-.578Zm-.6,2.674v.626l-1.028.859-.6-.8-.514.45-.217-.281.8-.707.578.747Zm-1.943,1.678V23.7l-1.173.98L50.279,23.5l.1-.634.907,1.124ZM50.97,22.18l-.249.193-.265-.345-.8.667-1.285-1.678.137-.522,1.3,1.606.659-.546ZM54.5,11.74a.209.209,0,0,1,.233.185.241.241,0,0,1-.466,0,.209.209,0,0,1,.233-.185m-.329.538-.185-.169c-.458-.45-1.084.193-.667.747s1.173-.08.851-.578m-.241.137c0,.369-.345.265-.233.185s.129-.08.137-.145,0-.12.1,0m.193-.048a.458.458,0,0,1-.377.538.072.072,0,0,1,0-.137c.265,0,.257-.313.265-.4s.088-.1.12,0m-.442,1.735c0,.193-.161.193-.241.072-.345-.594-.394-.94-1.044-1.357-.137-.1-.12-.225.072-.249a1.863,1.863,0,0,1,1.213,1.534m-.385.064c-.53-.08-.98.249-1.285.956a1.076,1.076,0,0,1-1.606.546c-.6-.546-.1-1.349.442-1.6A1.944,1.944,0,0,0,52.2,12.752a3.052,3.052,0,0,1,1.06,1.389m-2.586,1.325a1.036,1.036,0,0,0,.9-.305c.257-.233.707-1.277,1.341-1.181v.048c-.434-.056-.8.546-.988.875a1.156,1.156,0,0,1-1.253.683c-.1-.04,0-.137.048-.12m0-.241c.345.064.747-.305.94-.578a2.257,2.257,0,0,1,.53-.578h.048a4.127,4.127,0,0,0-.578.707,1.028,1.028,0,0,1-.988.546c-.1-.04,0-.137.048-.12m-3.63,2.056a2.345,2.345,0,0,0,1.052-.8c.249-.3.361-.683.634-.916a1.156,1.156,0,0,1,1.365,0,1.213,1.213,0,0,1-.634,1.775,1.984,1.984,0,0,0-1.462,1.173,7.068,7.068,0,0,0-.956-1.237m7.959-2.666L48.52,20.244c-.1-.61.112-1.245-.169-1.8,0-.353.594-.843,1.606-1.1a1.462,1.462,0,0,0,.586-1.486A1.253,1.253,0,0,0,52.19,15.2c.217-.361.562-.948,1.108-1a.426.426,0,0,0,.466.056,1.438,1.438,0,0,0,1.317.329m-3.429,1.462.5-.321.048.064-.506.313ZM49.026,18.7l1.558-1.189v.064l-1.5,1.181Zm0,.61L52.3,16.582l.04.064-3.212,2.731-.048-.056Zm3.566-3.164,1.558-1.181v.064L52.6,16.213Zm-4.658,2.466a5.622,5.622,0,0,0-1-1.245c-.153-.056-.2,0-.161.1a7.228,7.228,0,0,1,1.036,1.349c.072.177.233-.088.12-.209m-.8.466c-.466-.562-.466-.675-.98-1.293-.169-.1-.337,0-.249.225.5.715.578.739.988,1.341.1.209.394-.145.241-.273m.538-.161a9.516,9.516,0,0,0-1.132-1.494c-.193-.12-.394,0-.289.257.578.8.667.8,1.14,1.558.12.233.458-.177.281-.321M33.92,26.9c1.654-.988,6.24-4.144,8.521-5.622a9.854,9.854,0,0,0,3.429-3.02,5.9,5.9,0,0,1,.964,1.3,14.384,14.384,0,0,0-2.779,2.024A56.684,56.684,0,0,0,39.606,26.9Zm8.834-4.337c-.755.851-1.478,1.695-2.176,2.586l.08.064c.691-.907,1.405-1.735,2.16-2.594a17.724,17.724,0,0,1,3.333-2.843l-.12-.056a16.768,16.768,0,0,0-3.325,2.843M40.3,25.079l.8-.98h-.072l-.8.956Zm12.36-12.6a1.4,1.4,0,0,1,.41,0,3.212,3.212,0,0,0,.193.466,2.273,2.273,0,0,0-.6-.474m1.092,1.261a3.629,3.629,0,0,0-.369-.675c.257.1.345.048.45.1.072.265,0,.626-.08.57M48.44,19.979q0-.578-.048-1.156c-.064-.145-.153-.12-.193.217l.145,1.389a2.394,2.394,0,0,1,.1-.45" transform="translate(-6.679 -2.311)"/><path class="e" d="M1.29,18.8v-.964l.964-1.253.8.691.145-.185-.466-.4v-.8L4.141,14.2c.281.321.891.394,1.558-.217-.209-.072-.281-.8-.177-.916a.94.94,0,0,1-.466-.8c-.964-.233,0-1.606.45-.482.514-.217.859-.1,1.012.466.538-.04.948-.1,1.028.434a1.285,1.285,0,0,0,.281.53,2.779,2.779,0,0,0,1.261.8,1.076,1.076,0,0,1,.45,1.2,1.092,1.092,0,0,1,1.7.506,8.938,8.938,0,0,0,.9,1.108.723.723,0,0,0,.4.209c.193,0,.185-.088.434,0,.458-.048.626.056.586.289a.618.618,0,0,1,.329.723,4.561,4.561,0,0,0,1.14,1.486,32.726,32.726,0,0,0,3.076,2.112l9.284,5.517H20c-2.249-2.586-4.144-5.975-7.228-7.308-.345-.128-.313-.1-.466-.088-.305,0-.5-.667-.8-.145l-.056,1.237L9.963,22.777l-.8-.691-.217.265.361.273.128.8-.988,1.293L7.129,23.677v-.8l.225-.305-.394-.361-.61.8-1.156-.94v-.755l1-1.277.755.642.193-.249L6.615,20v-.7l.305-.442-.241-.2L6,19.46l-.8-.651-.128.2.394.369v.883l-.972,1.245-1.221-1v-.94l.12-.145L3.1,19.179l-.538.723Z" transform="translate(-0.254 -2.234)"/><path class="f" d="M1.42,17.974l1.028.867L3,18.158l.988.8-.594.8,1.028.859L5.3,19.451l-.7-.61.6-.731.7.57.691-.851.916.731-.683.867.8.683-.634.8-.8-.683-.8,1.116.916.8.578-.8,1,.956-.578.731,1.02.8.859-1.116-.715-.57.651-.8.691.562L11.041,20.3,4.167,14.432,2.882,16.038l.8.739-.594.731-.8-.683Zm0,.8v-.651L2.448,19l.586-.7.8.675-.345.434L3.1,19.074l-.522.7Zm1.992,1.1,1.012.9.956-1.2v.739l-.867,1.108-1.1-.907Zm-.554-3.734.731.634-.3.329-.434-.345Zm3.9,3.365.707.626-.233.281-.474-.353Zm-2.024-.723.49-.57.691.578L6.6,17.95l.755.626-.249.321-.4-.345-.683.875-.8-.667-.209.273Zm.594,2.674.98.875.578-.755.8.707-.177.289-.514-.45-.61.8-1.06-.843Zm1.952,1.678,1.036.851.916-1.132.088.634-.891,1.173-1.148-.972Zm1.373-.964.466-.594.667.546,1.3-1.606.137.522L9.933,22.72l-.8-.667-.265.345ZM5.1,11.71a.209.209,0,0,1,.233.185.241.241,0,0,1-.466,0A.209.209,0,0,1,5.1,11.71m.321.538c-.313.5.53,1.1.859.578s-.209-1.2-.675-.747Zm.249.137c.056-.072.088,0,.088,0a1.588,1.588,0,0,0,.137.153c.04.032-.233.177-.225-.193M5.476,12.3c0-.1.1-.1.112,0s0,.418.265.4a.064.064,0,1,1,0,.128.458.458,0,0,1-.377-.538m.442,1.735A1.847,1.847,0,0,1,7.13,12.489c.193,0,.209.145.072.249-.659.418-.707.763-1.044,1.357-.088.12-.233.12-.241-.072m.385.064a3.076,3.076,0,0,1,1.108-1.341,1.943,1.943,0,0,0,1.333,1.389c.562.233,1.06,1.06.466,1.534A1.092,1.092,0,0,1,7.6,15.123c-.3-.707-.747-1.036-1.277-.956m2.586,1.325c.048,0,.145.08.04.12A1.173,1.173,0,0,1,7.7,14.93c-.193-.361-.554-.964-1-.907v-.048c.626-.1,1.076.948,1.341,1.181a1.028,1.028,0,0,0,.867.305m0-.241c.048,0,.145.08.04.12a1.044,1.044,0,0,1-.988-.546,4.288,4.288,0,0,0-.57-.707h.04a2.257,2.257,0,0,1,.538.578c.185.273.586.642.94.578m3.63,2.056a6.69,6.69,0,0,0-.956,1.237,2.016,2.016,0,0,0-1.47-1.173,1.2,1.2,0,0,1-.626-1.775,1.14,1.14,0,0,1,1.357,0,7.372,7.372,0,0,1,.642.916,2.3,2.3,0,0,0,1.052.8m-7.951-2.7A1.421,1.421,0,0,0,5.9,14.28a.426.426,0,0,0,.466-.056c.546.056.9.642,1.116,1a1.245,1.245,0,0,0,1.606.659,1.478,1.478,0,0,0,.586,1.486c.98.257,1.606.755,1.606,1.1-.289.554-.072,1.189-.177,1.8Zm3.365,1.43-.048.056L7.4,15.781l.048-.064ZM10.575,18.7l-.04.056L8.977,17.564l.048-.064Zm0,.618-.04.056L7.323,16.641l.048-.064,3.269,2.731ZM7.042,16.143,7,16.207,5.435,15.026l.048-.064ZM11.7,18.608c-.1.12.056.385.12.209a7.228,7.228,0,0,1,1.036-1.349c.048-.128,0-.161-.153-.1a5.927,5.927,0,0,0-1,1.245m.8.466c-.161.128.137.482.241.273.41-.6.482-.626.988-1.341.08-.2-.088-.329-.249-.225-.514.618-.522.731-.98,1.293m-.538-.161c-.185.145.161.554.273.321a18.352,18.352,0,0,1,1.148-1.558c.1-.233-.1-.377-.289-.257a8.625,8.625,0,0,0-1.132,1.494m13.7,7.983H20.044a57.628,57.628,0,0,0-4.505-5.316,14.183,14.183,0,0,0-2.811-2.04,5.935,5.935,0,0,1,1-1.277,9.815,9.815,0,0,0,3.421,3.02c2.289,1.454,6.866,4.61,8.521,5.622m-8.834-4.337a16.769,16.769,0,0,0-3.325-2.843l-.064.056a17.668,17.668,0,0,1,3.325,2.843c.755.859,1.478,1.686,2.168,2.594l.08-.064c-.707-.883-1.421-1.735-2.184-2.586m2.5,2.466-.8-.956h-.072l.8.98ZM6.953,12.473a2.409,2.409,0,0,0-.6.474,4.529,4.529,0,0,0,.2-.466,1.349,1.349,0,0,1,.4,0M5.9,13.741c-.12.048-.153-.305-.088-.578.112-.056.2,0,.45-.1a3.911,3.911,0,0,0-.361.683m5.4,6.69.153-1.389c-.048-.337-.137-.361-.193-.217a11.138,11.138,0,0,0-.08,1.148,4.562,4.562,0,0,1,.088.45" transform="translate(-0.28 -2.305)"/><path class="g" d="M42.74,23.2l.088-.064c0-.088-.088.12-.153-.418A5.277,5.277,0,0,0,42.74,21.6c-.04,0-.1-.056-.1,0a4.152,4.152,0,0,1-.056.98.241.241,0,0,0,.056.217c-.072.305.112.321.112.369m-9.228,1.3c1.253,4.891,3.51,6.216,6.32,5.967,1.759-.153,3.333-1.028,3.212-3.212a10.178,10.178,0,0,0-1.911-3.566,3.453,3.453,0,0,1-.731-3.02A2.771,2.771,0,0,1,42.1,21.828l1.534-.723c.161-.04.145-.241.145-.241a2.747,2.747,0,0,0-2.2-1.695,4.963,4.963,0,0,0-2.369,1.253c-.8,1.012-.257,2.931.514,4.1a10.577,10.577,0,0,1,1.317,2.313c.434,1.189-.394,2.184-2.176,2.506a7.573,7.573,0,0,1-3.148-5.26Zm8.9-2.763a3.156,3.156,0,0,1-.04.891,5,5,0,0,0,0,.651h.1v-.49a2.61,2.61,0,0,0,.088-1.06s-.088-.056-.1,0m.98-.434a1.012,1.012,0,0,1,.048.61v.3a.8.8,0,0,1,.048.522l.128-.072a.546.546,0,0,0-.048-.353,2.907,2.907,0,0,0-.088-1.044c-.04,0-.1-.048-.1.04m.257-.153a1.486,1.486,0,0,1,.056.554c0,.137-.064.128,0,.249a.241.241,0,0,1,.08.2.8.8,0,0,1,0,.522l.12-.064c.056-.321.056-.562-.08-.642s0-.12,0-.241a1.791,1.791,0,0,0-.056-.61s-.1-.056-.1,0m-.8.442a3.517,3.517,0,0,1,0,.907c0,.128,0,.128.072.209a.506.506,0,0,1,0,.466l.145-.12a.49.49,0,0,0-.1-.458,6.1,6.1,0,0,0-.04-1.044s-.1-.048-.1,0m.273.7c0,.128,0,.128.064.209a.546.546,0,0,1,0,.474l.145-.12c0-.241.048-.281-.072-.474a5.621,5.621,0,0,0-.064-.972s-.1-.056-.1,0a3.044,3.044,0,0,1,0,.843m-.98-.426a2.687,2.687,0,0,1,0,.8v.618h.1v-.466a2.811,2.811,0,0,0,.064-.956.056.056,0,0,0-.1,0" transform="translate(-6.6 -3.775)"/><path class="h" d="M42.23,21.625l.1-.112a2.875,2.875,0,0,0-2.538-1.261s-.153.1-.265.2a2.586,2.586,0,0,1,2.706,1.173m.233-.217,1.124-.562c-.514-.883-1.373-1.606-1.935-1.518a8.834,8.834,0,0,0-1.7.8,2.907,2.907,0,0,1,2.514,1.309M39.122,29.5l1.156.675a2.687,2.687,0,0,0,2.562-2.923c0-.8-1.446-2.875-1.935-3.469a3.5,3.5,0,0,1-.651-3.212,2.16,2.16,0,0,0-.8,0c-.369.482-.466,2.233.626,3.8a9.171,9.171,0,0,1,1.269,2.136c.482,1.14-.064,2.586-2.209,2.971m-5.212-4.907c.562,2.233,1.462,3.879,2.578,4.65a4.69,4.69,0,0,0,2.979,1.084,7.429,7.429,0,0,1-4.16-5.847,9.99,9.99,0,0,1-1.413.177m5.838,5.622h.337A7.164,7.164,0,0,1,35.645,24.4H35.5a7.107,7.107,0,0,0,4.248,5.855" transform="translate(-6.677 -3.804)"/><path class="i" d="M9.9,59.371,6.13,59.09l.321,11.468c-.1.683.1,2.072.088,2.988a3.831,3.831,0,0,1,0,1.413,4.852,4.852,0,0,0-.1,3.421,5.019,5.019,0,0,1,.137,2.658c-1.317,2.2,4.321,1.606,4.28.94a3.767,3.767,0,0,0,.177-2.674l.12-.739-.145-8.979a23.483,23.483,0,0,0,.281-3.614c.08-1.044.394-2.514.466-3.429L13.093,59.2l-2.249.394c-.1.185-.723,0-.972-.225M48.493,74.959a4.208,4.208,0,0,1,0-1.413c0-.916.193-2.3.1-2.988L48.9,59.09l-3.775.281c-.241.225-.859.41-.972.225L41.94,59.2l1.341,3.341c.064.916.385,2.409.458,3.429a24.574,24.574,0,0,0,.281,3.614l-.145,8.979L44,79.3a3.726,3.726,0,0,0,.177,2.674c0,.642,5.622,1.261,4.272-.94A4.955,4.955,0,0,1,48.6,78.38a4.478,4.478,0,0,0-.137-3.421" transform="translate(-1.207 -11.635)"/><path class="j" d="M10.256,77.287l.1-.458.233-5.622.418-.329c-.1-1.438-.337-4.24-.249-5.983a13.2,13.2,0,0,1,.12-1.927,12.761,12.761,0,0,1,.233-1.606c0-.691.177-1.478.153-1.911a5.107,5.107,0,0,1-1.221-.072L6.714,58.84V70.533A17.193,17.193,0,0,1,6.9,75.095a5.3,5.3,0,0,0,0,3.212,5.212,5.212,0,0,1,0,2.634c-.1.61-.385.891.41,1.044a6.714,6.714,0,0,0,2.971-.072,3.212,3.212,0,0,0,.064-1.759,4.674,4.674,0,0,1-.161-2.8m.659-12.85v2.61a3.839,3.839,0,0,0,0,.61l.128,1.028c.088.233.153-.265.161-.554V67.69a2.409,2.409,0,0,0,0-.418,11.4,11.4,0,0,1,.064-2.289c.137-.972.683-3.887.747-4.5l-.193-1.221a41.126,41.126,0,0,0-.8,5.148m-.08,13.372-.337-.193a4.288,4.288,0,0,0,.137,2.064,6.176,6.176,0,0,1,.177,2.016c.3-.177.321-1.148.056-2.2a4.457,4.457,0,0,1,0-1.686m37.4.442a5.236,5.236,0,0,0,.048-3.212,16.545,16.545,0,0,1,.185-4.562V58.76L45.19,59.3a5.068,5.068,0,0,1-1.213.072c0,.434.145,1.221.145,1.911a12.977,12.977,0,0,1,.241,1.606,13.2,13.2,0,0,1,.12,1.943c.08,1.743-.153,4.546-.249,5.983l.418.329.233,5.622.1.458a4.674,4.674,0,0,1-.153,2.8,3.212,3.212,0,0,0,.064,1.759,6.674,6.674,0,0,0,3,.137c.8-.153.506-.434.418-1.044a5.2,5.2,0,0,1,0-2.634M44.355,67.634a3.838,3.838,0,0,0,0-.61v-2.61a42.658,42.658,0,0,0-.8-5.148L43.231,60.4c.056.61.6,3.526.739,4.5a10.834,10.834,0,0,1,.072,2.289,2.41,2.41,0,0,0,0,.418c0,.161,0,.353,0,.506,0,.289.072.8.161.554Zm.418,9.958-.337.193a4.3,4.3,0,0,1,0,1.686c-.257,1.052-.241,2.024.064,2.2a5.726,5.726,0,0,1,.177-2.016,4.377,4.377,0,0,0,.128-2.064" transform="translate(-1.309 -11.57)"/><path class="k" d="M54.31,84.31h0" transform="translate(-10.694 -16.601)"/><path class="c" d="M11.354,42.2c-5.7.225-10.745,6.055-6.81,11.749-.642.217-.907.586-.8,1.116-.651.153-.763.466-.554,1l.707.988c.361.1.691.064.731-.177l5.043-.056a3.638,3.638,0,0,0,1.606.056l-.225-1.269-.723.072.875-.731-.233-1.189V50.3L9.812,48.7c-.064-.578-.482-.8-1.245-.562a2.421,2.421,0,0,1,2.409-3.6ZM5.483,49.926a4.353,4.353,0,0,1,1.2-3.373A2.971,2.971,0,0,0,7.572,48.6a4.184,4.184,0,0,0-2.088,1.325m.972,2.321c-.112-1.381.651-1.919,2.016-1.879l.466.675c.578.161.851-.056,1-.442a.618.618,0,0,0,.562,0,.546.546,0,0,0-.1.667c-.859.474-.538,1.678.6,1.028v.361l-.377.377c-1.084,1.221-3.212,2.466-4.176-.8" transform="translate(-0.609 -8.309)"/><path class="d" d="M3.631,55.441a.289.289,0,1,1-.281.289.289.289,0,0,1,.281-.289m-.112.763L4,56.9a.41.41,0,0,0,.675-.329l-.626-.8a.385.385,0,0,1-.53.418m.739-.538a.747.747,0,0,0,.924-.112l-.064.8c-.048.426-.137.353-.281.12Zm0-1.261a.642.642,0,0,0-.128.916.675.675,0,0,0,.94.072.651.651,0,0,0,.137-.916.683.683,0,0,0-.948-.072M10.3,51.635a.522.522,0,0,1,.723.056.5.5,0,0,1-.1.7.522.522,0,0,1-.723-.056.49.49,0,0,1,.1-.7m.418-.932a.506.506,0,0,0-.1.707.53.53,0,0,0,.731.048.5.5,0,0,0,.1-.7.522.522,0,0,0-.723-.056M9.63,49.282a.312.312,0,1,1-.273.281.281.281,0,0,1,.273-.281m.056.8c.3,0,.385-.177.442-.53l.442.466c0,.3-.056.546-.4.458Zm-1,.313.394.514a.482.482,0,0,0,.6-.538l-.466-.49a.9.9,0,0,1-.53.514m-2.9,2.024a1.718,1.718,0,0,1,.554-.12c-.145-1.269.482-1.952,1.879-2.04a.707.707,0,0,1-.161-.675c-1.606.12-2.353,1.1-2.273,2.835M8.5,48.262c-2.024-2.016-.056-4.441,2.136-4.015v.233c-2.337.273-2.859,2.072-2.16,3.791M5.069,50.719A5.2,5.2,0,0,1,6.851,45.5l-.161,1.02a4.57,4.57,0,0,0-1.213,3.63Zm6.031-7.5c-5.4-.3-9.212,6.465-5.71,10.223a.9.9,0,0,1,.305-.956c-.137-1.606.434-2.811,2.53-3.084-.45,1.293,1.237.675.739-.169.916-.112.691-1.438-.257-.691-2.522-1.759-.8-5,2.409-4.465Zm-6.007,8.2c-1-2.474-.137-4.682,2.273-6.666a3.164,3.164,0,0,0,.418,4.015c-1.727.61-2.578,1.494-2.69,2.666M11.156,42.6l-.056.321c-5.156.217-9.637,6.128-5.686,10.978v.522C1.4,50.928,3.808,43.066,11.188,42.6m-1.14,14.134v.137a2.1,2.1,0,0,0,1.044,0v-.153a1.935,1.935,0,0,1-1.012,0m.088-.8-.056.667a1.831,1.831,0,0,0,.988.072v-.883a2.449,2.449,0,0,1-.94.137m0-.337v.2l.94-.691v-.193Zm0-.723v.618l.94-.651v-.8Zm0-.1a1.7,1.7,0,0,1,.94-1.687v.851Z" transform="translate(-0.66 -8.388)"/><path class="e" d="M52.156,42.2l.345,2.353a2.4,2.4,0,0,1,2.409,3.6c-.763-.2-1.173,0-1.245.562L52.51,50.319v3.445l-.193,1.189.875.731-.715-.072-.337,1.269a3.63,3.63,0,0,0,1.606-.056l5.051.056c0,.241.369.273.723.169l.715-.98c.2-.538.1-.851-.554-1,.137-.53-.137-.9-.8-1.116,3.935-5.694-1.116-11.524-6.818-11.749m5.879,7.726A4.248,4.248,0,0,0,55.851,48.6a3.012,3.012,0,0,0,.98-2.048,4.377,4.377,0,0,1,1.2,3.373m-5.148,3.132-.377-.377v-.361c1.148.651,1.462-.554.61-1.028a.57.57,0,0,0-.1-.675.578.578,0,0,0,.554,0c.145.385.426.6,1,.434l.466-.667c1.373,0,2.136.5,2.016,1.879-1,3.277-3.084,2.032-4.168.8" transform="translate(-10.251 -8.309)"/><path class="f" d="M59.932,55.434a.289.289,0,1,1-.281.289.281.281,0,0,1,.281-.289m.112.763a.385.385,0,0,1-.53-.418l-.626.763a.4.4,0,0,0,.667.353Zm-.739-.538-.586.8c-.137.233-.233.305-.273-.12l-.072-.8a.8.8,0,0,0,.932.112m0-1.261a.675.675,0,0,0-.94.072.642.642,0,0,0,.129.916.683.683,0,0,0,.948-.072.642.642,0,0,0-.137-.916m-6.039-2.771a.5.5,0,0,1,.1.707.53.53,0,0,1-.723.048.5.5,0,0,1-.1-.7.522.522,0,0,1,.723-.056m-.41-.924a.522.522,0,0,0-.731.048.5.5,0,0,0,.1.7.514.514,0,0,0,.723-.048.5.5,0,0,0-.1-.7m1.084-1.43a.281.281,0,1,1-.265.281.273.273,0,0,1,.265-.281m-.056.8-.49.394c-.337.088-.369-.161-.394-.458l.442-.466c.056.353.137.546.442.53m.972.281a.859.859,0,0,1-.53-.514l-.466.49a.482.482,0,0,0,.6.538Zm2.9,2.024c.08-1.735-.683-2.714-2.273-2.835a.707.707,0,0,1-.161.675c1.4.088,2.024.8,1.879,2.04a1.719,1.719,0,0,1,.554.12m-2.7-4.12c.707-1.719.177-3.518-2.152-3.791V44.23c2.2-.418,4.16,2.008,2.136,4.015M58.478,50.7l-.361-.562a4.513,4.513,0,0,0-1.253-3.6l-.161-1.02a5.212,5.212,0,0,1,1.791,5.22m-6.055-7.5.048.859c3.212-.53,4.891,2.706,2.361,4.465-.94-.747-1.164.578-.257.691-.49.8,1.2,1.462.747.169,2.088.273,2.658,1.446,2.53,3.084a.891.891,0,0,1,.3.956c3.477-3.791-.313-10.553-5.726-10.256m6.031,8.2c-.12-1.173-.972-2.056-2.69-2.666a3.212,3.212,0,0,0,.418-4.015c2.409,1.984,3.269,4.192,2.273,6.666M52.4,42.56c7.413.466,9.766,8.328,5.774,11.822V53.86c4.015-4.819-.53-10.761-5.686-10.978Zm1.116,14.167a1.968,1.968,0,0,1-1.02,0v.153a2.1,2.1,0,0,0,1.044,0Zm-.1-.8a2.489,2.489,0,0,1-.94-.161v.883a1.863,1.863,0,0,0,1-.08Zm0-.337-.988-.715v.193l.98.691Zm0-.723-.964-.8v.755l.956.683Zm-.956-.94v-.851a1.719,1.719,0,0,1,.94,1.686Z" transform="translate(-10.244 -8.38)"/><path class="l" d="M49.2,57.965a13.266,13.266,0,0,1-.2-2.217c0-.891-.514-1.309-1.606-.8a2.409,2.409,0,0,1-2.578.57,1.317,1.317,0,0,0-1.173.145,1.3,1.3,0,0,1,.57.891,6.956,6.956,0,0,1,.04,1.606c.056.377.1.755.153,1.124a6.722,6.722,0,0,1,.161,2.482,12.448,12.448,0,0,0-.177,3.212,7.228,7.228,0,0,1-.4,1.542c0,.377-.064.731-.1,1.068L43.085,69a1.7,1.7,0,0,0-.088.594l-.691,1.084a4.738,4.738,0,0,0-1.438,1.935A3.213,3.213,0,0,0,39.7,73.874a7.445,7.445,0,0,1-.916.8,1.526,1.526,0,0,0-.731.739,11.324,11.324,0,0,0-1.863,1.132,8.513,8.513,0,0,1-1.935.891,4.883,4.883,0,0,0-2.538.9,2.289,2.289,0,0,1-1.815.458,21.923,21.923,0,0,0-2.313.522.8.8,0,0,1-.345,0,22.4,22.4,0,0,0-2.313-.522,2.281,2.281,0,0,1-1.815-.458,4.915,4.915,0,0,0-2.546-.9,8.834,8.834,0,0,1-1.935-.891,10.689,10.689,0,0,0-1.863-1.132,1.494,1.494,0,0,0-.723-.739,6.425,6.425,0,0,1-.916-.8,3.148,3.148,0,0,0-1.2-1.261,4.666,4.666,0,0,0-1.4-1.879l-.683-1.084a1.7,1.7,0,0,0-.1-.594l-.8-1.413c0-.337-.072-.691-.1-1.068a7.839,7.839,0,0,1-.394-1.542,12.85,12.85,0,0,0-.177-3.212,6.722,6.722,0,0,1,.161-2.482,7.835,7.835,0,0,1,.145-1.124,6.915,6.915,0,0,1,.048-1.606,1.293,1.293,0,0,1,.57-.972,1.285,1.285,0,0,0-1.164-.145,2.409,2.409,0,0,1-2.578-.57c-1.1-.474-1.606-.056-1.606.8a12.488,12.488,0,0,1-.193,2.233,17.468,17.468,0,0,0-.112,2.787c.08.94.225,1.534.377,2.474a12.047,12.047,0,0,0-.112,3.461,9.364,9.364,0,0,0,1.229,3.3,16.527,16.527,0,0,1,1.325,2.955,11.806,11.806,0,0,0,1.919,2.947,6.633,6.633,0,0,1,2.233,2.353,6.947,6.947,0,0,0,2.409,1.9,6.529,6.529,0,0,0,2.369,1.55,7.3,7.3,0,0,0,2.257.835,6.36,6.36,0,0,1,1.606.538,4.3,4.3,0,0,0,1.606.57c.522.08,1.156.289,1.518.321a3.67,3.67,0,0,1,1.919.177,5.445,5.445,0,0,0,2.409,0,3.67,3.67,0,0,1,1.919-.177c.361,0,1-.241,1.518-.321a4.345,4.345,0,0,0,1.606-.57,6.3,6.3,0,0,1,1.606-.522,7.228,7.228,0,0,0,2.241-.859,6.5,6.5,0,0,0,2.409-1.55,7.027,7.027,0,0,0,2.409-1.9A6.545,6.545,0,0,1,44.555,75.9a11.862,11.862,0,0,0,1.927-2.947A15.982,15.982,0,0,1,47.832,70a9.364,9.364,0,0,0,1.229-3.3,12.312,12.312,0,0,0-.12-3.461c.161-.94.3-1.534.377-2.474a17.426,17.426,0,0,0-.1-2.787" transform="translate(-1.091 -10.775)"/><path class="k" d="M10.157,58.743a3.638,3.638,0,0,1-.249,1.245,4.819,4.819,0,0,0,0,2.088h0a5.887,5.887,0,0,1,.2,2.048,15.027,15.027,0,0,0,.1,1.5,4.714,4.714,0,0,0,.345,1.606,2.763,2.763,0,0,0,.6,1.413c.161.369.442.5.49,1.092a2.241,2.241,0,0,0,.8,1.277,2.61,2.61,0,0,1,.723,1.229,1.429,1.429,0,0,0,.554.755A3.413,3.413,0,0,0,15.145,74.6,7.445,7.445,0,0,0,17.554,76.4a14.456,14.456,0,0,0,2.409,1.277,19.629,19.629,0,0,0,3.365,1.421l1.807.273,2.225.5a.61.61,0,0,0,.241,0l2.233-.5,1.847-.337a19.106,19.106,0,0,0,3.365-1.421,13.9,13.9,0,0,0,2.409-1.277,7.276,7.276,0,0,0,2.409-1.791,3.421,3.421,0,0,0,1.421-1.606,1.526,1.526,0,0,0,.554-.755,2.546,2.546,0,0,1,.723-1.229,2.241,2.241,0,0,0,.8-1.277c.048-.594.321-.723.49-1.092a2.9,2.9,0,0,0,.6-1.43,5.156,5.156,0,0,0,.345-1.606c.088-.474.048-1,.1-1.5A6.344,6.344,0,0,1,45.1,62h0a4.818,4.818,0,0,0,0-2.088,3.847,3.847,0,0,1-.241-1.245V56.406c-.129-.57-.337-.8-.691-.659a3.212,3.212,0,0,1,.361,2.16,5.1,5.1,0,0,0,.177,1.55,7.316,7.316,0,0,1,.145,2.128,14.215,14.215,0,0,0-.233,3.566,8.617,8.617,0,0,0-.385,1.807,3.06,3.06,0,0,1-.715,1.839c-.241.265-.345.53-.257.731l-.867,1.421a2.61,2.61,0,0,0-.98,1.373,6.657,6.657,0,0,0-1.277,1.421,3.156,3.156,0,0,1-.916.9,4.818,4.818,0,0,0-1.076.98,4.409,4.409,0,0,0-1.606.964,10.3,10.3,0,0,1-2.064,1,6.971,6.971,0,0,0-2.642.932A3.148,3.148,0,0,1,30.227,79a6.73,6.73,0,0,0-2.088.458,4.418,4.418,0,0,1-1.454,0A6.842,6.842,0,0,0,24.6,79a3.156,3.156,0,0,1-1.606-.482,6.923,6.923,0,0,0-2.554-.932,10.237,10.237,0,0,1-2.056-1,4.441,4.441,0,0,0-1.606-.964,4.762,4.762,0,0,0-1.068-.98,3.06,3.06,0,0,1-.891-.9,6.9,6.9,0,0,0-1.277-1.421,2.7,2.7,0,0,0-.98-1.373l-.875-1.421c.1-.2,0-.466-.249-.731a3.02,3.02,0,0,1-.723-1.839,8.561,8.561,0,0,0-.377-1.807,14.616,14.616,0,0,0-.233-3.566,6.794,6.794,0,0,1,.145-2.128,5.108,5.108,0,0,0,.169-1.55,3.212,3.212,0,0,1,.434-2.16c-.361-.161-.562.088-.691.659Zm38.733-1.269a7.469,7.469,0,0,1-.064-1.9.739.739,0,0,0-1.438-.072,4.2,4.2,0,0,1-2.666.241,2.409,2.409,0,0,1,.345,1.807,3.1,3.1,0,0,0,.1,1.606,8.248,8.248,0,0,1,.161,2.883c-.064.329-.145.8-.257,1.446A6.5,6.5,0,0,1,45,65.345a4.257,4.257,0,0,1-.385,1.879A4.385,4.385,0,0,1,44.1,68.6c-.353.361-.514.675-.474.94a2.024,2.024,0,0,1-.7,1.261,2.554,2.554,0,0,0-.8,1.261,3.1,3.1,0,0,1-.851,1.277,3.06,3.06,0,0,1-.859,1.084,3.027,3.027,0,0,0-.907.7A4.192,4.192,0,0,1,37.9,76.267a11.171,11.171,0,0,1-2.409,1.317c-.859.394-1.743.8-2.65,1.261a9.581,9.581,0,0,1-2.144.53,18.029,18.029,0,0,0-2.457.53,3.758,3.758,0,0,1-1.526,0,17.906,17.906,0,0,0-2.409-.53,9.372,9.372,0,0,1-2.144-.53c-.908-.442-1.8-.867-2.658-1.261a11.115,11.115,0,0,1-2.409-1.317,4.217,4.217,0,0,1-1.606-1.148,2.843,2.843,0,0,0-.908-.7,3.036,3.036,0,0,1-.851-1.084,3.027,3.027,0,0,1-.851-1.277,2.554,2.554,0,0,0-.8-1.261,1.984,1.984,0,0,1-.691-1.261,1.245,1.245,0,0,0-.474-.94,4.377,4.377,0,0,1-.53-1.373A4.385,4.385,0,0,1,10,65.345a5.967,5.967,0,0,1-.072-1.863c-.112-.675-.193-1.116-.257-1.446a8.24,8.24,0,0,1,.161-2.859,3.1,3.1,0,0,0,.112-1.606,2.313,2.313,0,0,1,.345-1.807,4.243,4.243,0,0,1-2.674-.241.739.739,0,0,0-1.438.072,7.132,7.132,0,0,1-.056,1.9,12.207,12.207,0,0,0,.056,4.819,6.425,6.425,0,0,1,.08,2.088,7.959,7.959,0,0,0,1.156,5.541l1.606,3.365a7.372,7.372,0,0,0,1.606,2.409A9.926,9.926,0,0,1,12.9,77.937a19.274,19.274,0,0,0,2.409,2.072A13.652,13.652,0,0,0,19.69,82.3a16.586,16.586,0,0,1,2.474.883,4.819,4.819,0,0,0,1.815.313,7.662,7.662,0,0,1,2.409.305,6.658,6.658,0,0,0,2.257,0,7.581,7.581,0,0,1,2.409-.305,4.818,4.818,0,0,0,1.815-.313,17.252,17.252,0,0,1,2.417-.883,13.781,13.781,0,0,0,4.425-2.313,19.274,19.274,0,0,0,2.409-2.072A9.927,9.927,0,0,1,44.393,75.7,7.493,7.493,0,0,0,46,73.287l1.606-3.365a8.031,8.031,0,0,0,1.164-5.541,6.649,6.649,0,0,1,.072-2.088,12.215,12.215,0,0,0,.064-4.819" transform="translate(-1.163 -10.822)"/><path class="m" d="M10.549,70.813l-3.285-.321c-.273,0-.313.257-.056.369l.594.1.723,1.992-.257.369c-.08.209.048.41.305.265l2.184-2.409c.064-.129,0-.249-.209-.361M8.983,72.427l-.442-1.365,1.454.112Zm2.819.8c-.225-.273-.4-.169-.353.209L9.416,74.893c-.225-.337-.546-.12-.305.193.867,1.7,1.55,2.12,2.144,1.952a2.048,2.048,0,0,0,1.55-1.213.94.94,0,0,0,.04-.4,4.818,4.818,0,0,0-1.02-2.192m.353,2.409a1.044,1.044,0,0,1-1.3.755c-.538,0-.932-.466-1.261-1.108l2.1-1.478a3.389,3.389,0,0,1,.474,1.164,1,1,0,0,1,0,.667m5.381,4.208-1.992.8c-.281.185-.377.128-.3-.169l.273-2.064c0-.426-.361-.313-.482.128a6.883,6.883,0,0,0-.385,1.863l-.145.715c-.088.385,0,.538.369.45.988-.5,1.927-.916,2.867-1.325.241-.161.112-.458-.209-.385m4.136,1.791L19.3,80.515c-.217-.072-.281,0-.177.305l.217.153-1.164,2.546-.3-.161c-.217-.12-.426,0-.217.273a4.819,4.819,0,0,0,2.5,1.221c.426,0,.506-.313,0-.434a5.292,5.292,0,0,1-1.526-.691l.377-.8a1.181,1.181,0,0,0,.851.289,1.156,1.156,0,0,1,.522.112,2.506,2.506,0,0,0,.659.353c.361.129.538-.1.305-.394l-.667-.377a1.189,1.189,0,0,0-.8-.2.8.8,0,0,1-.675-.361l.522-1.068,1.606.8c.329.112.554-.193.273-.385m3.959,3.574c-.193.257-.562.329-1.124.209l-.57-.618h.554A.98.98,0,0,0,24.8,83a8.682,8.682,0,0,0-1.943-.739c-.337,0-.466.225-.161.434l-.618,2.409c-.04.458.233.514.361.241l.217-.642a3.694,3.694,0,0,1,1.389,1.148,1.421,1.421,0,0,0,1.751-.145c.53-.137,0-.8-.225-.4m-2.755-1.076.41-1.518c2.273.57,2.634,2.144-.345,1.389m6.28-.94a8.3,8.3,0,0,0-.9,2.048c0,.145-.088.3-.193,0A10.377,10.377,0,0,1,27,83.165c-.185-.482-.586-.377-.45.185a15,15,0,0,0,1.5,2.666c.217.313.361.193.482-.12a6.874,6.874,0,0,1,.667-1.462,11.523,11.523,0,0,0,.586-1.237c.088-.522-.313-.594-.626-.056m4.706-.916a.3.3,0,0,0-.546.145l-.426,2.024c0,.209,0,.225-.169.072l-1.269-1.751c-.193-.185-.329-.12-.385.185l-.482,2.5c0,.185.209.353.4,0l.345-1.735c0-.241.1-.265.241-.064L32.642,85.2c.161.193.3.12.434,0a1.606,1.606,0,0,0,.3-.642l.313-1.438c.088-.281.177,0,.185-.072l.956,1.767c.2.337.554.128.369-.313-.434-.8-.875-1.606-1.333-2.3m4.473-2.409a4.859,4.859,0,0,0-2,.924c-.241.217-.145.522.145.482l.241-.088,1.036,1.976c-.394.281-.217.739.169.394.626-.361,1.253-.739,1.9-1.181,1.156-1.148.562-2.939-1.486-2.49m.691,2.578-.916.458-1-2.016a3.148,3.148,0,0,1,1.5-.634,1.116,1.116,0,0,1,.41,2.192m2.506-5.437a.193.193,0,1,0-.353.137l.731,2.12c.112.193.088.233-.1.153l-2.16-.659c-.209-.128-.554.3-.169.466a15.434,15.434,0,0,0,2.795.9c.361,0,.434-.128.329-.345q-.522-1.494-1.084-2.771m3.453-1.325c.345,1.2-.112,1.727-1.028,1.606-1.735-.578-1.606-2.168-.161-2.1l.273-.353-.538-.586c-.313-.305-.554.048-.281.337l.161.209c-1.847.353-1.341,2.032-.281,2.658s2.859.145,2.409-1.8c0-.41-.675-.546-.514,0m1.47-1.43a15.919,15.919,0,0,0-2.313-1.293c-.369,0-.538.321-.217.578l2.337,1.14c.522.145.538-.185.193-.426m-1.02-3.212.57-1.221c.241-.361-.209-.594-.41-.225l-1.221,2.554c-.12.321.088.642.337.361l.522-.972,2.168.924.209-.377Z" transform="translate(-1.385 -13.649)"/><path d="M12.5,28.88H44.986a.2.2,0,0,1,.193.2V55.262a.225.225,0,0,1,0,.072C43.717,60.1,41.533,63.413,38.754,65.6a16.977,16.977,0,0,1-9.83,3.445h-.418A16.937,16.937,0,0,1,18.725,65.6c-2.763-2.184-4.947-5.5-6.425-10.28V29.081a.2.2,0,0,1,.193-.2" transform="translate(-2.422 -5.687)"/><path class="m" d="M12.55,29.13H44.4V54.668c-2.891,9.469-8.657,13.155-16.062,13.588h-.4a16.161,16.161,0,0,1-10.681-4.272,21.684,21.684,0,0,1-4.706-8.673Z" transform="translate(-2.471 -5.736)"/><path class="g" d="M13.19,55.5H23.478V29H34.151V55.5H44.88c-1.719,5.365-4.393,8.834-7.75,10.8H20.482A14.2,14.2,0,0,1,17.9,64.336a21.684,21.684,0,0,1-4.706-8.681Z" transform="translate(-2.597 -5.71)"/><path class="h" d="M12.55,55H22.806V28.22H33.511V55H44.232c-1.711,5.333-4.385,8.762-7.758,10.794H19.842a14.624,14.624,0,0,1-2.586-1.96,21.684,21.684,0,0,1-4.706-8.673Z" transform="translate(-2.471 -5.557)"/><path class="f" d="M28.989,41.1c.361,0,.458.418.257,1.14a4.505,4.505,0,0,1-.618,1.518,1.935,1.935,0,0,0,1-1.542c.072-.634,0-1.164.353-1.148s.594.6.755.8c.145-.193.394-.8.618-.8.514,0,.353.5.426,1.108a2.152,2.152,0,0,0,1.036,1.606c-.257-.313-1.189-2.554-.4-2.666a.337.337,0,0,1,.418.3c0,.442,0,.988,0,1.454a.86.86,0,0,0,.675.948c0-.088.241-.161.361,0,.45-.209.377-.6.169-.586.361.345-.6.45-.45-.1a.418.418,0,0,1,.225-.305c.217-.072.225,0,.45,0-.4-.61-1.1-.153-1.028.088-.361-.217.2-.739.353-.715-.088-.08-.353-.7-.1-.9.466-.3.8.337.361.482a.4.4,0,0,1-.04-.2c0-.1-.088-.145-.153-.064s.233.546.61.755a2.008,2.008,0,0,1,.385.53,1.751,1.751,0,0,0-.53-1.349c-.305-.41-.57-1.108-.233-1.277s.522.361.185.426c0-.345-.1-.273-.153-.185a1.791,1.791,0,0,0,.385.755,6.192,6.192,0,0,1,.618,1.173c-.048-.474-.506-1.462,0-1.606a.339.339,0,1,1,.257.626c-.048-.329-.153-.522-.241-.337s.265.474.257,1.229a.6.6,0,0,1,.61-.361c-.289.193-.337.667-.667,1.309a1.5,1.5,0,0,1-1.189.924.281.281,0,0,1-.506,0,2.072,2.072,0,0,1-1.341-.458,3.084,3.084,0,0,1-1-1.9.924.924,0,0,0-.209.506c.048.514.233.988.233,1.5a.594.594,0,0,1-.466.731.586.586,0,0,1-.394-.562,5.686,5.686,0,0,1,.3-1.67c0-.193-.209-.4-.249-.522a3.951,3.951,0,0,1-.948,1.919,1.823,1.823,0,0,1-1.5.442c-.177.217-.353.2-.5,0a1.526,1.526,0,0,1-.875-.474c-.458-.466-.458-1.293-.9-1.743.233-.048.345.1.554.289.064-.8.434-1.108.3-1.213s-.265.169-.233.345c-.522-.064-.08-.859.369-.514s-.193,1.012-.064,1.349a7.814,7.814,0,0,1,.659-1.173,2.89,2.89,0,0,0,.209-.394c0-.04.1-.217.04-.249s-.128.112-.112.225c-.353,0-.225-.53.161-.434s.112.8-.072,1.076c-.546.626-.859,1.43-.723,1.606.1-.353.675-.747.859-.859a.393.393,0,0,0,.177-.5c-.193-.064-.064.418-.257.281-.514-.345.337-.723.458-.434a.8.8,0,0,1-.169.8c.265,0,.8.506.361.747-.153-.618-.8-.4-1-.12.385-.137.8.153.651.538-.434.474-.642-.112-.394-.185-.369-.064-.217.578.056.634s.3-.056.418.1a.9.9,0,0,0,.683-.8c0-.273.056-.538.056-.8-.048-.916,0-1.124.4-1.124m1.751,1.719a5.622,5.622,0,0,0-.161,1.3.161.161,0,1,0,.321,0,5.413,5.413,0,0,0-.161-1.285m-1.678-2.409a.321.321,0,1,0,.321.321.321.321,0,0,0-.321-.321m1.052-.064a.321.321,0,1,0,.321.321.321.321,0,0,0-.321-.321m1.277,0a.321.321,0,1,0,.321.321.321.321,0,0,0-.321-.321m1.084.088a.321.321,0,0,0-.313.321.313.313,0,0,0,.3.337.353.353,0,0,0,.337-.337.321.321,0,0,0-.321-.321M30.74,37.515c.5,0,.241,1.984.217,2.313a.385.385,0,0,0,.313.434c.562.1.377-1,.41-1.213a2.811,2.811,0,0,1,.98-1.357c-.313.145-1.116,2.578-.313,2.682.53.072.466-.426.377-1.181-.048-.442-.048-1.317.49-1.5,0,.273,0,.145.048.289a.337.337,0,0,0,.546.1c.289-.377,0-.723-.5-.8-1-.112-1.446.859-1.67,1.156-.161-.94-.53-1.3-.891-1.245s-.763.4-.916,1.245c-.225-.3-.7-1.285-1.7-1.173-.474.056-.747.361-.466.755a.337.337,0,0,0,.522-.056c.072-.137-.056-.369.072-.321.53.209.49,1.132.458,1.55-.04.594-.265,1.092.249,1.148s.482-.8.313-1.534a3.5,3.5,0,0,0-.474-1.108,2.843,2.843,0,0,1,.916,1.293c.064.6-.12,1.317.41,1.253a.377.377,0,0,0,.345-.418c0-.394-.305-2.3.305-2.329m1.96-1.662.169.3.329.064-.225.249v.337l-.305-.145-.305.145v-.337l-.225-.249.329-.064Zm0,.161-.1.193-.225.048.153.161v.225l.2-.088.209.088V36.39l.145-.161-.217-.048Zm-.948,0-.161.3-.329.064.225.249-.04.337.305-.137.305.137V36.6l.225-.249-.329-.064Zm0,.161.112.193.217.048-.153.169v.217l-.2-.088-.2.088v-.217l-.12-.112.225-.048Zm-.98-.137.169.3.329.064-.233.249.04.337-.305-.137-.305.137v-.337l-.209-.177.329-.064Zm0,.161-.112.193-.217.048.153.169V36.8l.2-.088.2.088v-.217l.153-.169-.281.032Zm-.988-.2.161.3.329.064-.225.249v.337l-.305-.145-.313.145.04-.337-.225-.249.329-.064Zm0,.161-.112.193-.217.048.145.161v.225l.209-.088.2.088v-.225l.145-.161h-.257Zm-.94-.361-.169.289-.329.072.225.249v.337l.313-.145.3.145-.088-.273.225-.249-.329-.072Zm0,.161.1.193.217.048-.153.161v.225l-.2-.1-.209.1v-.225l-.153-.161.225-.048Zm-.755-.8.169.289.329.072-.225.249v.337l-.305-.145-.305.145V35.74l-.225-.249.329-.072Zm0,.153.112.2.217.04-.145.169v.225l-.209-.1-.2.1v-.225l-.153-.169.225-.04Zm.659-.8-.169.289-.329.072.233.249v.337l.305-.145.305.145-.04-.337.233-.249L29,34.768Zm0,.161-.112.193-.217.048.153.161v.225l.2-.1.2.1v-.225l.153-.161-.281-.04Zm1-.41.169.3.329.064-.225.249v.337l-.305-.137-.305.137.04-.337-.225-.249.329-.064Zm0,.161-.1.193-.225.048.153.169v.217l.2-.088.209.088-.08-.177.153-.169-.217-.048Zm1.02-.2.161.3.329.064-.225.249v.337l-.305-.145-.305.145.04-.337-.233-.249.329-.064Zm0,.161-.112.193-.217.048.153.161v.225l.2-.1.2.1v-.225l.153-.161-.217-.048Zm1.012-.12.169.3.329.064-.225.249v.337l-.305-.137-.305.137.064-.337-.225-.249.329-.064Zm0,.161-.1.193-.225.048.153.169v.217l.2-.088.209.088V34.8l.153-.169-.217-.048Zm.94.112-.169.3-.329.064.225.249v.337l.313-.145.305.145v-.337l.225-.249-.426-.024Zm0,.161.1.193.217.048-.145.161v.225l-.2-.088-.209.088v-.225L32.37,34.9l.225-.048Zm.667.53-.161.3-.337.064.233.249-.04.337.305-.137.305.137-.04-.337.233-.249-.329-.064Zm0,.161-.112.193-.217.048.153.161v.225l.2-.088.2.088v-.225L33.8,35.6l-.217-.048Z" transform="translate(-5.041 -6.732)"/><path class="m" d="M30.915,44.441a2.217,2.217,0,0,0-.12-1.8,3.277,3.277,0,0,1,.112,1.8m-1.044-8.208.1.193.225.048-.153.161v.225l-.2-.088-.209.088v-.225l-.153-.161.217-.048Zm.988,0,.112.193.217.048-.153.169v.217l-.2-.088-.2.088v-.217l-.1-.145.217-.048Zm.98,0,.112.193.217.048-.145.169v.217l-.209-.088-.2.088v-.217l-.1-.145.225-.048Zm.948-.185.112.193.217.048-.145.161v.225l-.209-.088-.2.088V36.45l-.153-.161.225-.048Zm.683-.634.112.193.217.048-.153.161v.225l-.209-.088-.2.088v-.225l-.153-.161.217-.048Zm-.667-.691.1.193.217.048-.145.161v.225l-.2-.088-.209.088v-.225l-.145-.161.217-.048Zm-.94-.273.112.193.217.048-.145.169v.217l-.209-.088-.2.088V34.86l-.153-.169.225-.048Zm-1.012,0,.112.193.217.048-.153.161v.225l-.2-.1-.2.1v-.225l-.153-.161.217-.048Zm-1.02,0,.112.193.217.048-.161.2v.217l-.209-.088-.2.088v-.217l-.153-.169.225-.048Zm-1,.249.112.193.217.048L29,35.1v.225l-.2-.1-.2.1V35.1l-.153-.161.217-.048Zm-.659.642.112.2.217.04-.145.169v.225l-.209-.1-.2.1v-.225l-.153-.169.225-.04Zm.755.675.1.193.217.04-.145.169v.225l-.2-.1-.209.1v-.225l-.145-.169.217-.04Zm2.184,5.622c.112-.209-1.068,1.847-.538,2.8-.522-.506.161-2.457.538-2.8m-.45.586a1,1,0,0,0-.265-.57c-.088-.1.08.217.145.305s.128.329.12.265m-4.778-.1c.217.273.883,1.871,1.518,1.887-.8.072-1.245-1.245-1.518-1.887m1.389-1.67a.1.1,0,0,1-.072-.137c0-.056.153-.12.169-.056a.185.185,0,0,0-.1.193m-1.124.7c-.088-.048-.056-.145,0-.225s.233-.169.241-.064c-.064,0-.289.12-.249.289m.394.112c0-.233-.193.394-.241.618s-.08.883,0,.667a2.787,2.787,0,0,1,.241-1.285m.626.048c.1-.329-.369.53-.53.8-.056.153-.2.859-.088.723a3.02,3.02,0,0,1,.626-1.518m.305.891c.064-.12-.257.137-.345.241s-.53.723-.353.57a2.586,2.586,0,0,1,.7-.8m0-.514c-.088-.048-.056-.145,0-.225s.241-.161.249-.064c-.064,0-.289.12-.249.289m.594.851c.128-.056-.209-.185-.361-.185s-.53.1-.4.177a.594.594,0,0,1,.763,0m-1,.6c.128,0,.112-.185.418-.088.1,0,.1.289.209.217s-.048-.321-.209-.345-.41.048-.418.217m.522.867a.088.088,0,0,1,0-.128c.056,0,.177,0,.153.072a.185.185,0,0,0-.193.056m6.336,0a.08.08,0,0,0-.1-.08c-.056.016-.137.112-.088.145a.193.193,0,0,1,.193-.064m.562-.8c0-.169-.257-.273-.426-.241s-.345.281-.2.369.1-.2.217-.217c.3-.1.281.072.41.088m1.173-1.052c-.265.642-.707,1.96-1.51,1.879.626,0,1.293-1.606,1.51-1.879m-1.55.08c-.072-.12.249.137.337.241s.538.723.353.57a2.57,2.57,0,0,0-.691-.8m-.618.305a.586.586,0,0,1,.755,0c.128-.072-.257-.177-.4-.177s-.49.128-.353.193m.626-.867c.088-.056.056-.153,0-.225s-.233-.169-.241-.072a.273.273,0,0,1,.249.3m.257-.329c-.1-.329.377.522.53.843.064.145.209.859.088.723a3.02,3.02,0,0,0-.618-1.606m.634-.048a2.771,2.771,0,0,1,.233,1.285c.088.217.048-.434,0-.667s-.249-.851-.233-.618m.474-.1c.04-.169-.185-.313-.249-.289,0-.1.185,0,.241.064s.1.177,0,.225m-1.181-.739a.1.1,0,0,0,.088-.12c0-.064-.128-.153-.161-.088a.2.2,0,0,1,.072.209m-5.509.972c-.112.651.137,1.606-.4,2.409.578-.5.466-1.606.538-2.345,0-.088-.12-.161-.137-.064m1.124,0c-.153.594-.145,1.662-.8,2.3.659-.369.8-1.518.932-2.192,0-.1-.112-.193-.137-.1m2.875,0a4.809,4.809,0,0,0,.369,2.409c-.57-.482-.49-1.606-.514-2.337,0-.088.137-.169.145-.072m-1.108,0a4.372,4.372,0,0,0,.723,2.3c-.642-.394-.755-1.518-.859-2.2,0-.1.112-.185.137-.1m.916-.707a.8.8,0,0,0-.225.1c-.056,0,0-.128.064-.177a.1.1,0,0,1,.161.072m-1.084-.1a1.173,1.173,0,0,0-.225.1c-.056,0,0-.129.064-.177a.1.1,0,0,1,.161.072m-1.285,0a.891.891,0,0,0-.233.1c-.056,0,0-.137.064-.177a.113.113,0,0,1,.169.072m-1.076.08a1.261,1.261,0,0,0-.233.1c-.048,0,0-.128.064-.177a.109.109,0,0,1,.169.072M27.832,38a.8.8,0,0,0,0-.337c0-.08-.161.08-.161.161s.137.265.161.177m.972,2.136a5.292,5.292,0,0,0-.1-2.16,3.662,3.662,0,0,1,.209,2.176c0,.072-.088.056-.1,0m-.337-2.618c.329,0,1.285,1.052,1.3,1.3.04-.3-.875-1.413-1.3-1.3m1.606,2.53c0,.072-.177,0-.161,0-.1-.755.112-2.225.642-2.514-.546.458-.5,1.968-.482,2.546m3.622-2.016a.8.8,0,0,1,0-.337c0-.08.161.08.161.161s-.137.257-.161.177m-.651-.5c-.337,0-1.285,1.052-1.3,1.293,0-.289.875-1.405,1.3-1.293m-.385,2.65a6.834,6.834,0,0,1,.112-2.128,3.534,3.534,0,0,0-.193,2.04c0,.064.08.1.088,0m-1.405-.161a5.622,5.622,0,0,0-.2-2.5A4.682,4.682,0,0,1,31.437,40c0,.072-.161.056-.177,0" transform="translate(-5.096 -6.783)"/><path class="g" d="M16.5,35.37a.53.53,0,0,1-.04-.313c.088-.193.233-.1.281,0a.233.233,0,0,1-.128.3,1.968,1.968,0,0,1,.128,1.606c0,.056,0,.056.1,0a1.14,1.14,0,0,1,.875,0,.8.8,0,0,0,.546,0,.241.241,0,0,1,.353.08.145.145,0,0,1,0,.177.8.8,0,0,1-.506,0c-.562.3-1.052.426-1.357.08.1,1.413.394,2.289.964,2.369a.642.642,0,0,1-.667.112c-.048.225.112.41.41.562a.466.466,0,0,1-.57.08c-.169.6-.731.506-.691,0a.506.506,0,0,1-.546-.1,1.767,1.767,0,0,0,.394-.683,1.2,1.2,0,0,1-.6-.048,2.819,2.819,0,0,0,.956-2.192h-.209a1,1,0,0,1-1.2-.064.4.4,0,0,1-.321,0c-.193-.072-.169-.225,0-.3a.739.739,0,0,1,.3,0,1.124,1.124,0,0,0,.49.016,1.2,1.2,0,0,1,.907-.1,2.409,2.409,0,0,1,.145-1.606m24.229,0a.61.61,0,0,1-.048-.313c.088-.193.241-.1.289,0a.241.241,0,0,1-.128.3,1.992,1.992,0,0,1,.128,1.606c0,.056,0,.056.088,0a1.156,1.156,0,0,1,.883,0,.8.8,0,0,0,.546,0,.241.241,0,0,1,.353.08.145.145,0,0,1,0,.177.8.8,0,0,1-.506,0c-.562.3-1.052.426-1.357.08.1,1.413.394,2.289.956,2.369a.626.626,0,0,1-.659.112c-.048.225.112.41.41.562a.466.466,0,0,1-.57.08c-.169.6-.731.506-.7,0a.49.49,0,0,1-.538-.1,1.879,1.879,0,0,0,.394-.683,1.2,1.2,0,0,1-.6-.048,2.787,2.787,0,0,0,.948-2.192h-.2a1,1,0,0,1-1.2-.064.4.4,0,0,1-.321,0c-.193-.072-.169-.225,0-.3a.739.739,0,0,1,.3,0,1.14,1.14,0,0,0,.5-.072,1.2,1.2,0,0,1,.908-.1,2.409,2.409,0,0,1,.145-1.606M20.531,30.977a2.12,2.12,0,0,0-.137,1.518,1.164,1.164,0,0,0-.907.088,1.172,1.172,0,0,1-.506.064.731.731,0,0,0-.3,0c-.193.064-.217.209,0,.281a.466.466,0,0,0,.313,0,1.06,1.06,0,0,0,1.2.064h.209a2.626,2.626,0,0,1-.956,2.088,1.2,1.2,0,0,0,.6,0,1.823,1.823,0,0,1-.385.659.53.53,0,0,0,.538.1c0,.45.522.546.7,0a.49.49,0,0,0,.57-.072c-.305-.153-.466-.321-.418-.538a.659.659,0,0,0,.667-.112c-.562-.072-.859-.9-.964-2.249.305.329.8.209,1.365-.072a.8.8,0,0,0,.5,0,.129.129,0,0,0,0-.169.249.249,0,0,0-.353-.072.851.851,0,0,1-.546,0,1.213,1.213,0,0,0-.875,0c-.064.04-.1,0-.1,0a1.815,1.815,0,0,0-.12-1.534.217.217,0,0,0,.12-.289c-.048-.1-.193-.193-.281,0a.482.482,0,0,0,.04.3m16.126,0a2.12,2.12,0,0,0-.137,1.518,1.181,1.181,0,0,0-.916.088,1.124,1.124,0,0,1-.5.064.731.731,0,0,0-.3,0c-.193.064-.217.209,0,.281a.466.466,0,0,0,.313,0,1.06,1.06,0,0,0,1.2.064h.209a2.626,2.626,0,0,1-.956,2.088,1.2,1.2,0,0,0,.6,0,1.735,1.735,0,0,1-.394.659.554.554,0,0,0,.546.1c0,.45.522.546.691,0a.49.49,0,0,0,.57-.072c-.3-.153-.458-.321-.41-.538a.659.659,0,0,0,.667-.112c-.562-.072-.859-.9-.964-2.249.305.329.8.209,1.357-.072a.8.8,0,0,0,.506,0,.129.129,0,0,0,0-.169.249.249,0,0,0-.353-.072.843.843,0,0,1-.546,0,1.213,1.213,0,0,0-.875,0c-.064.04-.1,0-.1,0a1.815,1.815,0,0,0-.12-1.534.217.217,0,0,0,.12-.289c-.048-.1-.193-.193-.281,0a.482.482,0,0,0,0,.3m-19.692-1.96c.153.8.426,1.293.875,1.349a.715.715,0,0,1-.667.1c-.048.2.112.353.41.49a.53.53,0,0,1-.57.064c-.169.522-.731.434-.691,0a.586.586,0,0,1-.546-.088,1.51,1.51,0,0,0,.394-.594,1.293,1.293,0,0,1-.6-.04,2.088,2.088,0,0,0,.867-1.3Zm24.229,0c.145.8.426,1.293.875,1.349a.715.715,0,0,1-.667.1c-.048.2.112.353.41.49a.53.53,0,0,1-.57.064c-.169.522-.731.434-.7,0a.578.578,0,0,1-.538-.088,1.606,1.606,0,0,0,.394-.594,1.285,1.285,0,0,1-.6-.04,2.088,2.088,0,0,0,.867-1.3ZM20.395,40.165a2.313,2.313,0,0,0-.137,1.606,1.132,1.132,0,0,0-.908.1,1.293,1.293,0,0,1-.506.072.6.6,0,0,0-.3,0c-.193.072-.217.225,0,.3a.418.418,0,0,0,.313,0,1.02,1.02,0,0,0,1.213.064h.2a2.8,2.8,0,0,1-.972,2.16,1.14,1.14,0,0,0,.61.04,1.96,1.96,0,0,1-.394.691.49.49,0,0,0,.538.1c0,.474.522.578.7,0a.482.482,0,0,0,.57-.08c-.305-.153-.458-.337-.41-.562a.642.642,0,0,0,.659-.112c-.562-.08-.851-.956-.956-2.369.3.345.8.217,1.357-.08a.8.8,0,0,0,.5,0c.056-.064.072-.12,0-.185a.241.241,0,0,0-.345-.072.8.8,0,0,1-.554-.048,1.173,1.173,0,0,0-.875,0q-.1.064-.1,0a1.952,1.952,0,0,0-.12-1.606.249.249,0,0,0,.128-.305c-.056-.1-.2-.2-.289,0a.634.634,0,0,0,.04.321m16.126,0a2.313,2.313,0,0,0-.137,1.606,1.132,1.132,0,0,0-.908.1,1.293,1.293,0,0,1-.506.072.61.61,0,0,0-.3,0c-.193.072-.217.225,0,.3a.418.418,0,0,0,.313,0,1,1,0,0,0,1.2.064h.209a2.819,2.819,0,0,1-.956,2.2,1.116,1.116,0,0,0,.6.04,1.831,1.831,0,0,1-.385.691.49.49,0,0,0,.538.1c0,.474.522.578.7,0a.482.482,0,0,0,.57-.08c-.305-.153-.458-.337-.41-.562a.642.642,0,0,0,.659-.112c-.562-.08-.851-.956-.956-2.369.3.345.8.217,1.357-.08a.8.8,0,0,0,.5,0c.056-.064.072-.12,0-.185a.241.241,0,0,0-.345-.072.8.8,0,0,1-.554-.048,1.173,1.173,0,0,0-.875,0q-.1.064-.1,0a1.976,1.976,0,0,0-.12-1.606.233.233,0,0,0,.12-.305c-.048-.1-.193-.2-.281,0a.634.634,0,0,0,0,.321m-24-.426v5.911a.562.562,0,0,0,.265-.377.49.49,0,0,0,.578-.08c-.305-.153-.466-.337-.418-.562a.659.659,0,0,0,.667-.112c-.562-.08-.859-.956-.964-2.369.305.345.8.217,1.365-.08a.8.8,0,0,0,.5,0,.153.153,0,0,0,0-.185.249.249,0,0,0-.353-.072.8.8,0,0,1-.546-.048,1.172,1.172,0,0,0-.875,0q-.1.064-.1,0a1.976,1.976,0,0,0-.12-1.606.233.233,0,0,0,.12-.305.185.185,0,0,0-.153-.12m32.325.426a2.409,2.409,0,0,0-.145,1.606,1.132,1.132,0,0,0-.908.1,1.269,1.269,0,0,1-.5.072.618.618,0,0,0-.3,0c-.2.072-.217.225,0,.3a.442.442,0,0,0,.321,0,1,1,0,0,0,1.2.064h.2a2.8,2.8,0,0,1-.948,2.2,1.108,1.108,0,0,0,.6.04,1.847,1.847,0,0,1-.394.691.49.49,0,0,0,.538.1c0,.345.265.49.49.321V40.261a.33.33,0,0,0-.04-.072h.04v-.377c-.064-.04-.145-.04-.2.08a.643.643,0,0,0,.048.321M12.412,30.576v5.919a.562.562,0,0,0,.265-.385.466.466,0,0,0,.578-.08c-.305-.153-.466-.337-.418-.562a.642.642,0,0,0,.667-.112c-.562-.08-.859-.948-.964-2.361.305.337.8.209,1.365-.08a.8.8,0,0,0,.5,0,.137.137,0,0,0,0-.177c-.112-.137-.217-.161-.353-.072a.851.851,0,0,1-.546-.048,1.173,1.173,0,0,0-.875,0h-.1a1.992,1.992,0,0,0-.12-1.606.225.225,0,0,0,.12-.3.209.209,0,0,0-.153-.128m32.325.426a2.409,2.409,0,0,0-.145,1.606,1.164,1.164,0,0,0-.907.088,1.14,1.14,0,0,1-.5.072.618.618,0,0,0-.3,0c-.2.064-.217.217,0,.289a.4.4,0,0,0,.321,0,1.02,1.02,0,0,0,1.2.072h.2a2.787,2.787,0,0,1-.948,2.192,1.2,1.2,0,0,0,.6.048,1.976,1.976,0,0,1-.394.691.506.506,0,0,0,.538.1c0,.353.281.506.506.313v-5.4a.667.667,0,0,0-.056-.1h.056v-.361c-.064-.048-.153-.048-.217.08a.61.61,0,0,0,.048.313M16.436,44.791a.506.506,0,0,1-.04-.305c.08-.185.209-.1.257,0a.241.241,0,0,1-.112.289,2.128,2.128,0,0,1,.112,1.606c0,.056,0,.056.08,0a1.012,1.012,0,0,1,.8,0,.715.715,0,0,0,.5.048c.12-.08.217-.064.321.072a.153.153,0,0,1,0,.169.691.691,0,0,1-.458,0c-.506.289-.956.418-1.229.08.1,1.381.361,2.241.867,2.313a.522.522,0,0,1-.594.112c-.048.225.1.4.369.554a.4.4,0,0,1-.514.08c-.153.586-.659.49-.634,0a.426.426,0,0,1-.482-.1,1.871,1.871,0,0,0,.353-.675.924.924,0,0,1-.546-.048,2.851,2.851,0,0,0,.859-2.144h-.185a.859.859,0,0,1-1.092-.064.329.329,0,0,1-.289,0c-.177-.072-.153-.217,0-.289a.578.578,0,0,1,.265,0,1.076,1.076,0,0,0,.458-.072.964.964,0,0,1,.8-.088,2.409,2.409,0,0,1,.128-1.606m24.221,0a.57.57,0,0,1,0-.305c.08-.185.209-.1.257,0a.241.241,0,0,1-.112.289,2.088,2.088,0,0,1,.1,1.606c0,.056,0,.056.088,0a1.012,1.012,0,0,1,.8,0,.707.707,0,0,0,.5.048c.12-.08.217-.064.313.072a.137.137,0,0,1,0,.169.691.691,0,0,1-.458,0c-.506.289-.956.418-1.229.08.1,1.381.361,2.241.867,2.313a.522.522,0,0,1-.594.112c-.048.225.1.4.369.554a.4.4,0,0,1-.514.08c-.161.586-.667.49-.634,0a.442.442,0,0,1-.49-.1,2.024,2.024,0,0,0,.361-.675.956.956,0,0,1-.554-.048,2.827,2.827,0,0,0,.867-2.144h-.185a.859.859,0,0,1-1.092-.064.329.329,0,0,1-.289,0c-.177-.072-.153-.217,0-.289a.619.619,0,0,1,.273,0,1.1,1.1,0,0,0,.458-.072.964.964,0,0,1,.8-.088,2.5,2.5,0,0,1,.12-1.606m-20.246,5.14a.522.522,0,0,1-.04-.289c.088-.177.225-.088.273,0a.233.233,0,0,1-.12.289,1.8,1.8,0,0,1,.12,1.5c0,.048,0,.056.088,0a1.213,1.213,0,0,1,.843,0,.8.8,0,0,0,.53,0,.233.233,0,0,1,.337.072.137.137,0,0,1,0,.169.8.8,0,0,1-.482,0c-.546.281-1.02.4-1.309.08.1,1.317.385,2.136.924,2.209a.618.618,0,0,1-.634.1c-.048.217.1.385.394.53a.458.458,0,0,1-.546.072c-.169.562-.707.466-.675,0a.5.5,0,0,1-.514-.1,1.855,1.855,0,0,0,.377-.642,1.14,1.14,0,0,1-.586-.048,2.586,2.586,0,0,0,.924-2.048h-.2a1.012,1.012,0,0,1-1.156-.064.4.4,0,0,1-.305,0c-.193-.072-.169-.209,0-.273a.691.691,0,0,1,.289,0,1.188,1.188,0,0,0,.482-.064,1.14,1.14,0,0,1,.867-.088,2.144,2.144,0,0,1,.137-1.494m16.126,0a.458.458,0,0,1,0-.289c.08-.177.225-.088.273,0a.233.233,0,0,1-.12.289,1.823,1.823,0,0,1,.12,1.5c0,.048,0,.056.088,0a1.213,1.213,0,0,1,.843,0,.8.8,0,0,0,.522,0,.233.233,0,0,1,.337.072.137.137,0,0,1,0,.169.8.8,0,0,1-.482,0c-.546.281-1.02.4-1.309.08.1,1.317.377,2.136.924,2.209a.618.618,0,0,1-.634.1c-.048.217.1.385.394.53a.458.458,0,0,1-.546.072c-.169.562-.707.466-.675,0a.5.5,0,0,1-.514-.1,1.855,1.855,0,0,0,.377-.642,1.132,1.132,0,0,1-.586-.048,2.586,2.586,0,0,0,.924-2.048.329.329,0,0,0-.2,0,1.012,1.012,0,0,1-1.156-.064.4.4,0,0,1-.305,0c-.193-.072-.169-.209,0-.273a.691.691,0,0,1,.289,0,1.213,1.213,0,0,0,.482-.064,1.14,1.14,0,0,1,.867-.088,2.144,2.144,0,0,1,.137-1.494M16.412,53.552a.466.466,0,0,1,0-.289c.08-.177.225-.1.273,0a.225.225,0,0,1-.12.281,1.847,1.847,0,0,1,.12,1.51c0,.048,0,.056.088,0a1.132,1.132,0,0,1,.843,0,.8.8,0,0,0,.522.04.233.233,0,0,1,.329.056h-3.06a1.1,1.1,0,0,1,.867-.088,2.136,2.136,0,0,1,.137-1.494M25.053,65.96c.112,1.253.385,2.024.916,2.1a.634.634,0,0,1-.634.1.353.353,0,0,0,.128.353c-.394-.08-.8-.177-1.173-.281a1.878,1.878,0,0,0,.072-.193,1.108,1.108,0,0,1-.578,0,2.562,2.562,0,0,0,.916-2.08Zm7.7,0c.1,1.173.353,1.919.8,2.072l-.434.153h-.1a.12.12,0,0,1,0,.056,10.125,10.125,0,0,1-1.221.337,1.735,1.735,0,0,0,.265-.514,1.108,1.108,0,0,1-.578,0,2.586,2.586,0,0,0,.916-2.1Zm7.886-12.384a.466.466,0,0,1,0-.289c.08-.177.225-.1.273,0a.225.225,0,0,1-.12.281,1.815,1.815,0,0,1,.112,1.51c0,.048,0,.056.1,0a1.132,1.132,0,0,1,.843,0,.8.8,0,0,0,.522.04.233.233,0,0,1,.329.056H39.629a1.124,1.124,0,0,1,.875-.088,2.136,2.136,0,0,1,.137-1.494M12.533,49.183c.072,0,.153,0,.193.1a.225.225,0,0,1-.12.281,1.815,1.815,0,0,1,.112,1.51c0,.048,0,.056.1,0a1.132,1.132,0,0,1,.8,0,.8.8,0,0,0,.522,0,.225.225,0,0,1,.337.072.12.12,0,0,1,0,.161.8.8,0,0,1-.482,0c-.538.281-1.012.394-1.3.072.1,1.325.377,2.136.924,2.217a.651.651,0,0,1-.642.1c0,.209.112.385.4.53a.482.482,0,0,1-.554.072.49.49,0,0,1-.3.369Zm32.365.385a.618.618,0,0,1-.04-.289c.04-.088.1-.112.145-.1V54.7c-.209.1-.442,0-.418-.329a.506.506,0,0,1-.522-.1,1.71,1.71,0,0,0,.377-.651,1.108,1.108,0,0,1-.578-.04,2.578,2.578,0,0,0,.891-2.08h-.2a1,1,0,0,1-1.156-.072.442.442,0,0,1-.305,0c-.185-.072-.169-.217,0-.281a.659.659,0,0,1,.281,0,1.325,1.325,0,0,0,.482-.064A1.124,1.124,0,0,1,44.729,51a2.184,2.184,0,0,1,.128-1.494" transform="translate(-2.438 -5.728)"/><path class="f" d="M29.962,70.788l1.879-3.678,4.032.819-1.695-3.767L37.327,61.5l-3.983-1.02-.1-4.136-3.277,2.5-3.285-2.5-.1,4.136L22.59,61.5l3.148,2.666-1.686,3.767,4.032-.819Z" transform="translate(-4.271 -10.965)"/><path class="g" d="M20.891,23.25v-.618a2.217,2.217,0,0,1,0-.8c0-.088-.088-.064-.112,0a2.955,2.955,0,0,0,.072.956v.466Zm-.241,0a4.224,4.224,0,0,0,0-.651,3.477,3.477,0,0,1-.032-.9c0-.1-.064-.072-.1,0a2.955,2.955,0,0,0,.088,1.06v.49Zm-1.269-2.176,1.534.723A2.731,2.731,0,0,1,22.6,20.632a3.357,3.357,0,0,1-.586,2.843l1.405.8c.7-1.181,1.156-2.939.385-3.9A5.019,5.019,0,0,0,21.4,19.13,2.747,2.747,0,0,0,19.2,20.817s0,.209.145.249m1.028,1.542a3.791,3.791,0,0,1-.048-.98c0-.088-.072-.064-.1,0a5.381,5.381,0,0,0,.048,1.124c-.056.538-.145.329-.145.418l.08.064c0-.048.193-.064.112-.369a.241.241,0,0,0,.056-.217m-.9-1.381a2.907,2.907,0,0,0-.088,1.044c-.08.233-.056.12-.048.353l.128.072a.8.8,0,0,1,.04-.522c0,.056.056-.1,0-.3a.948.948,0,0,1,.056-.61c0-.088-.072-.072-.1-.04m.53,1.446c.064-.08.088-.08.064-.209a3.55,3.55,0,0,1,0-.908c0-.1-.072-.072-.1,0A5.461,5.461,0,0,0,19.9,22.64a.514.514,0,0,0-.088.458l.137.12a.53.53,0,0,1,0-.466m7.228,1.373a7.573,7.573,0,0,1-3.028,5.18c-1.775-.321-2.61-1.309-2.184-2.5-.394-.506-.8-1.02-1.189-1.518a5.228,5.228,0,0,0-.8,1.9c-.145,2.217,1.43,3.092,3.212,3.212,2.811.249,5.068-1.076,6.32-5.967Zm-7.292-2.69c0-.1-.072-.072-.1,0a4.931,4.931,0,0,0-.064.972c-.128.185-.088.233-.072.474l.145.12a.522.522,0,0,1,0-.474c.056-.08.088-.08.064-.209a3.044,3.044,0,0,1,0-.843m-.634-.329a1.606,1.606,0,0,0-.056.61c0,.12.048.1,0,.241a1.075,1.075,0,0,0-.088.642l.128.064a.8.8,0,0,1,0-.522.221.221,0,0,1,.08-.2c.08-.072,0-.112,0-.249a1.333,1.333,0,0,1,.056-.554c0-.088-.072-.064-.1,0" transform="translate(-3.753 -3.767)"/><path class="h" d="M23.248,20.092a8.834,8.834,0,0,0-1.7-.8c-.562-.064-1.421.634-1.935,1.518l1.124.562a2.9,2.9,0,0,1,2.514-1.309m-2.409,1.413.1.112a2.6,2.6,0,0,1,2.706-1.173c-.112-.1-.265-.2-.265-.2a2.9,2.9,0,0,0-2.538,1.261m2.08-.916a3.469,3.469,0,0,1-.546,3.044l.891.53a3.878,3.878,0,0,0,.474-3.558,2.16,2.16,0,0,0-.8,0m-1.084,5.967c-.257-.337-.522-.667-.8-1a4.69,4.69,0,0,0-.723,1.7c-.048,1.277.49,2.546,2.554,2.923l1.2-.675c-2.136-.385-2.69-1.815-2.217-2.955M27.7,24.365h-.145a7.172,7.172,0,0,1-4.417,5.847h.345a7.123,7.123,0,0,0,4.248-5.855m.169.048A7.437,7.437,0,0,1,23.714,30.3a4.69,4.69,0,0,0,3-1.02,8.09,8.09,0,0,0,2.57-4.65,10.144,10.144,0,0,1-1.413-.177" transform="translate(-3.861 -3.797)"/><path class="e" d="M30.812,1.758a.289.289,0,0,1-.538,0c-.337-.145-.353-.474-.08-.57.161-.273.4-.233.57,0h.1v-.12C30.539.955,30.539.6,30.9.529c0-.49.49-.5.546,0,.225.1.3.305,0,.514v.145h.064c.153-.377.426-.337.554-.12.522.112.434.651,0,.61-.185.249-.369.217-.514,0v.956c.369.12.667.329.683.715.3.145.305.458,0,.546,0,.265-.369.41-.345.418,1.55.04,2.811.634,3.156,1.405.088,0,.177-.185.265-.466l.088.321c0,.161,0,.145.153.241a.731.731,0,0,1,.265.53.586.586,0,0,1,.466.41c.072.177.177.193.321.048a1.245,1.245,0,0,0,.321-.5c0,.153-.1.273,0,.45a.8.8,0,0,1,.177.8c.3.257.048.434.048.891a1.237,1.237,0,0,0,.369.273v.474l.1.048-.153,1.269a.7.7,0,0,0,.217.329.8.8,0,0,1-.08,1,.875.875,0,0,1-.506.8v.554l.112.112v.5l.128.225c.064.137,0,.217-.1.225l-.329.177c.273.353.305.651,0,.875-.112.056-.169.241-.128.61.586.345.522,1.084-.153,1.438l-.056.586a.747.747,0,0,1,.153.61c.153.217.185.41-.048.57a1,1,0,0,1-.651.8,15.789,15.789,0,0,1-3.076.94,10.513,10.513,0,0,1-6.65-.883.594.594,0,0,1-.377-.514l-.153-.851c-.048-.257.048-.361.1-.4l.128-.153-.048-.546A.651.651,0,0,1,25.72,16.3l-.072-.6c-.41,0-.474-.345-.217-.715V14.64l-.313-.056c-.112,0-.112-.04,0-.177l.281-.426v-.739a.562.562,0,0,0-.128-.329.859.859,0,0,1-.249-.739c-.257-.12-.217-.3-.169-.458-.41-.193-.305-.8-.048-1.558l.072.056V8.905a.8.8,0,0,1,.546-.8v-.3c-.2-.088-.153-.313-.056-.434s-.04-.177.056-.313a1.333,1.333,0,0,0,.257-.482,1.389,1.389,0,0,1,.225.57c.12.088.233,0,.345-.169s.153-.361.418-.514c-.137-.161-.088-.313.088-.458a.691.691,0,0,0,.434-.546c0,.353.064.506.265.353a7.228,7.228,0,0,1,3.212-1.446l-.394-.321c-.3-.056-.361-.353-.064-.554,0-.265.225-.522.659-.747V1.758Z" transform="translate(-4.84 -0.031)"/><path class="f" d="M30.879,5.193a.474.474,0,0,0,.273-.369c.072.145.129.241.249.289a.289.289,0,0,1,0,.482.193.193,0,0,1-.233,0c-.145.145-.281.088-.41-.1a.2.2,0,0,1,.112-.273M25.811,8.67a.546.546,0,0,0,.112-.289,1.719,1.719,0,0,0,.562-.072,4.385,4.385,0,0,0-.675.361m.8,10.842v.61a12.119,12.119,0,0,0,9.412-.2v-.394a10.826,10.826,0,0,0-9.428,0m-.53-10.272.145-.161h.048l-.128.161Zm6.995-.8.361-.072.153.185Zm3.574,1.3.723.514V9.875l-.385-.41.048.233Zm-3.341,8,.385-.281,1.181.313.128.353-.385.305-.988-.249Zm.161,0,.281-.209.948.233.177.3-.3.217-.8-.2ZM30.549,7.3a1.815,1.815,0,0,0,.667-.683,1.325,1.325,0,0,0,1.992.426,1.164,1.164,0,0,0,.49.426,1.735,1.735,0,0,1,.546.257A11.243,11.243,0,0,0,30.549,7.3m-5.493,4.57a.12.12,0,1,1-.145.12.137.137,0,0,1,.145-.12m1.855,4.015c-.281-.137-.482-.064-.6.257a.94.94,0,0,1,.12.128c.056.072,0,.064.128.1a.474.474,0,0,0,.434-.161.257.257,0,0,1-.08-.321m7.156-.265c.145.546.41.8.875.667a1.14,1.14,0,0,1-.53.61.859.859,0,0,1-.7-.522V16.2c.193-.048.3-.249.353-.554m-8.657-6.3.137-.177.305.145-.1.128H25.7l.048-.072L25.586,9.3l-.128.112Zm3.758-1.173.153-.088h.1l-.1.088Zm6.9,1.156.265.161-.056-.161Zm.177,4.465h.394l.241.41-.313.161Zm-.2-.12.522.907.578-.289-.4-.586ZM30.019,17.4l.329.241.265-.3Zm0,.707.394-.321.265.265Zm2.594-.377.137.161.153-.137-.128-.128-.161.1m2.522.49.41-.161.137.064.4.562-.466.128-.321-.153Zm.112.1.329-.137.321.418-.3.088ZM26.2,7.2a.715.715,0,0,1,.337-.458.329.329,0,0,1,.281,0c-.1.177-.048.273.137.281a.5.5,0,0,1-.329.305.626.626,0,0,1-.385-.145m7.67,2.859a.217.217,0,1,1-.233.217.225.225,0,0,1,.233-.217M27.08,16.235a.562.562,0,0,0,.257-.032.45.45,0,0,0,.169.185.169.169,0,0,1,0,.257.418.418,0,0,0-.209.313.281.281,0,0,0-.225-.088c-.12,0-.177-.12-.145-.321s0-.056.064-.112a.289.289,0,0,0,.056-.153m8.32-.691a.321.321,0,0,1,.185-.257c.233-.128.217-.281.08-.442s-.072-.153-.112-.233a.458.458,0,0,1-.225.2c-.313.1-.385.233-.209.377a.394.394,0,0,1,.1.345.474.474,0,0,1,.185,0m1-6.28h.385l.129.321-.369-.064Zm.1.064h.289l.088.217-.3-.08ZM33.2,12.188l.6.53.61-.225a6.24,6.24,0,0,0-1.213-.305m.691.651.707-.3,1.02.4.241.506-.642.394-.875-.3s-.442-.707-.45-.707m.209.048.506-.233.891.369.12.369-.514.3-.723-.233Zm-7.421,6.16.209-.345.353.1a3.8,3.8,0,0,0-.546.265Zm1.711-1.02.546-.1v.04l-.554.137Zm-.3.072.177-.225.57-.12.313.185-.185.217-.538.137ZM31.039.88c.048-.2.193-.233.265,0,.217-.169.321.241,0,.193v.353h.289c.064-.458.61-.209.337,0,.442-.145.506.345.072.217-.08.257-.185.249-.329.1h-.241V2.791l.112.233a.506.506,0,0,1,.313.426,1.156,1.156,0,0,0-.45-.1V2.96c0-.257-.145-.313-.377-.2l-.04-1.012h-.337c.088.313-.329.3-.281-.04-.233-.072-.185-.305.056-.265.112-.233.2-.225.225.056.281.048.353-.112.305-.377-.466-.064-.177-.4.08-.2M35.055,6.9c-.1-.072-.072-.257.145-.273a.594.594,0,0,0,.177.08h.056a.2.2,0,0,1,.08.217c0,.04,0,.04-.072.048a.578.578,0,0,1-.385-.1m2.257,4.513c-.128-.185-.1-.361.12-.522a.538.538,0,0,1,.137.289.305.305,0,0,1,.161.145c0,.1,0,.169-.056.177a.426.426,0,0,0-.169-.1.53.53,0,0,0-.193,0m-5.959,2.176a.98.98,0,0,0,.418.313q.514.1-.1.626c0,.064-.112.217.153.137s.45-.128.57.056a.8.8,0,0,0,.361.337.53.53,0,0,0-.49.337c-.128.193-.3.185-.506,0-.1-.064-.12,0-.112.1-.2.875,1.116,1.606,1.454.667-.385-.442-.305-.7.112-.891a.538.538,0,0,1,.731.241.53.53,0,0,0,.394-.161c.088-.161.217-.177.377-.04l.2.233c.1.064.145,0,.128-.1l-.128-.2c-.112-.153,0-.265.193-.353a.683.683,0,0,0,.4-.4,9.565,9.565,0,0,0-4.16-.9M26.9,9.072l-.225-.1.241-.345,1.14-.418.442.064-.217.361H28.2l.145-.241-.265-.064-1.108.385-.153.233h.369Zm3.212,4.112.353-.345.634.329a4.658,4.658,0,0,0-1,.072v-.056m1.325,0,.8-.434.642.522a6.5,6.5,0,0,0-1.421-.088m3.943.8.9.442-.426-.723Zm-6.3,3.59.353.233.41-.369Zm1.462.153.305.161h.924l.257-.161h.12l-.193.281a7.847,7.847,0,0,0-1.229,0ZM30.2,3.747A2.457,2.457,0,0,1,31.8,3.514c.394.185,0,.4,0,.337a2.12,2.12,0,0,0-1.47.137c-.185.112-.265-.193-.112-.241m-2.7,2.3a.265.265,0,0,1,.1.385.675.675,0,0,1,.353.08.53.53,0,0,0,.474,0c-.209.289-.916,1.084-1.325.538h-.072c.313.8,1.317.442,1.678-.161-.851-.739,1.213-1.245.755-.1.466.418.98.217,1.253-.337a.6.6,0,0,1-.659-.145c-.056-.08-.209-.1-.394-.128a.859.859,0,0,0,.49-.41.45.45,0,0,1,.562-.193.337.337,0,0,1,.177-.506c.064,0,.137,0,.137-.112l.056-.193a6.3,6.3,0,0,0-3.582,1.277M34.75,7.907a.9.9,0,0,0,.466-.369.98.98,0,0,0,.956.634l.562.321a.49.49,0,0,1,.241.482,7.1,7.1,0,0,0-2.192-1.052m-8.73,3.694a3.068,3.068,0,0,0,.056.964A.883.883,0,0,0,26.4,11.9a.361.361,0,0,1-.289-.249h-.056m7.854-3.285.161.193,1.3.418.249-.137-.129-.217L35.3,8.534h-.088l.193.3h0l-.137-.257h0l-1.124-.337ZM25.964,18.612A10.961,10.961,0,0,1,36.211,18v.273a10.737,10.737,0,0,0-10.175.482Zm.948-11.83c-.161.064-.112.225,0,.225a.45.45,0,0,0,.273-.072V6.863a.482.482,0,0,0-.257-.08m6.425-.369a.088.088,0,1,1-.065.029.088.088,0,0,1,.065-.029m-7.5,3.477a11.244,11.244,0,0,0,.128,1.357c.4-.418.739-.442,1.036-.145h0c.153.217.128.385-.08.618.41.61,1.421.3,1.486-.723-.377.458-.675.546-.988,0a.691.691,0,0,0-.3-.128,1.277,1.277,0,0,0,.329-.4.418.418,0,0,1,.49-.41c-.1-.281-.064-.474.273-.8a2.216,2.216,0,0,0,.137-.41,1.847,1.847,0,0,0,.305.385c.45.056.594.281.442.683.329-.289.642-.394.916-.153a.7.7,0,0,0,.426.225c-.145.1-.265.2-.289.321-.153.385-.41.474-.747.281s-.626.369,0,.916c.442.265.924.056,1.462-.586a.61.61,0,1,1,.851,0c.177.755,1.341,1,1.719-.128.128-.313-.048-.514-.241-.313-.337.217-.61.193-.7-.3,0-.072-.1-.128-.265-.185a.466.466,0,0,0,.41-.257c.1-.193.233-.281.442-.12l.522.305v-.08c-.329-.249-.233-.434.112-.61l.241-.345h.08a.345.345,0,0,0,.185.241.442.442,0,0,1,.056.8c.056.056.161,0,.289-.072.369-.161.53.048.6.426a.867.867,0,0,0,.3.321.642.642,0,0,0-.442.177c-.394.345-.53.3-.867,0a.932.932,0,0,0,.61,1.028c.217.08.442-.056.675-.353,0-.361-.056-.8.369-.8a.57.57,0,0,1,.482.185l-.137-1.06A10.866,10.866,0,0,0,33.882,8.9a11.822,11.822,0,0,0-5.533,0,10.336,10.336,0,0,0-2.474.988m7.429,5.79a.185.185,0,0,1,.145,0s0,.112,0,.12a.145.145,0,0,1-.145,0v-.088M28.8,8.309h.554l.474-.249-.418-.04h0l.128.064-.2.12h-.289l.289-.153V8h-.112Zm-.41,4.248a4.674,4.674,0,0,1,1.02-.265l-.618.659ZM28.14,5.546a7.814,7.814,0,0,1,2.988-.8.8.8,0,0,1,0-.161,1.136,1.136,0,0,0,.048.12,6.425,6.425,0,0,1,3.212.675,5.092,5.092,0,0,0-2.666-.8c-.265,0-.385-.1-.434-.265V3.868H31V4.55a6.674,6.674,0,0,0-2.859,1M25.177,11.7c.169-.281.145-.506-.048-.634a1.421,1.421,0,0,1-.3-.353.747.747,0,0,0,.056,1.068.353.353,0,0,1,.289-.08m1.767,4.168c0-.1-.1-.2-.241-.257a.19.19,0,0,1-.064-.321,1.156,1.156,0,0,0,.321-.578.546.546,0,0,0,.313.305q.289.145,0,.434c-.249.1-.153.257-.161.345a.217.217,0,0,0-.193.072m8.5.394c.1.1.209.313.313.289a.257.257,0,0,1,.072.209.361.361,0,0,1-.1.273.634.634,0,0,1-.289-.8m-5.316-8.2.177-.193h.128V8.22h-.1Zm2.048.225.209-.169.369.225Zm.626-.145.177.112.12-.056-.12-.12ZM25.45,14.051A9.87,9.87,0,0,1,36.974,13.7v-.08a8.1,8.1,0,0,0-4.015-1.662,2.184,2.184,0,0,1-1.253-.12H30.662A2.048,2.048,0,0,1,29.409,12a9.75,9.75,0,0,0-4.056,1.831Zm1.285,5.027a10.962,10.962,0,0,1,9.372,0v.249a10.858,10.858,0,0,0-9.372.04Zm.948-.466.145-.369.4.193Zm5.83-.8.233-.177.932.257.1.217-.289.185-.731-.233Zm.321,0,.667.185v.056l-.683-.241ZM26.847,6.719a.329.329,0,0,1,.377.04c.056-.12.112-.209.177-.233l.072-.1a.217.217,0,0,0-.137-.313c-.088,0-.177-.088-.257-.225a.948.948,0,0,1-.353.321.209.209,0,0,0-.056.321Zm2.024.8a.659.659,0,0,0,.225-.41,1.229,1.229,0,0,0,1.14.153h0a5.622,5.622,0,0,0-1.365.217M27.337,15.8a.281.281,0,0,1,.072.305.634.634,0,0,0,.94-.329.514.514,0,0,1-.257,0,1.084,1.084,0,0,0-.337-.161.177.177,0,0,0-.177,0,.53.53,0,0,0-.241.217m7.766-.153a.337.337,0,0,1-.217-.1l-.1-.185q-.169-.289-.361-.048a.65.65,0,0,1-.281.153.554.554,0,0,1,.161.249.313.313,0,0,0,.161.3q.233.169.361,0a1.2,1.2,0,0,1,.265-.12.353.353,0,0,1,0-.313M25.6,15.063v-.329l.377.048Zm4.144,2.747.145.08.2-.161-.177-.08Zm3.164.281.305-.217.289.329ZM25.369,7.465a.2.2,0,0,1,.088-.217.321.321,0,0,0,.1-.1c0-.064.08-.072.1,0a.843.843,0,0,0,.1.209c.056.08.048.072.04.169a.418.418,0,0,1-.128.305.249.249,0,0,0-.128-.088c0-.177-.04-.289-.185-.273m10.231-.9c.169-.056.161-.3-.072-.514A.98.98,0,0,1,35.3,5.6a.667.667,0,0,1-.185.313c-.225.2-.177.394.137.594a.353.353,0,0,0,.353.056m-4.3,3.758c.1,0,.185.056.185.128s-.08.137-.185.137-.193-.064-.193-.137.088-.128.193-.128m-4.3,4.192c0,.177.128.321.369.418a.394.394,0,0,1,.161.442.634.634,0,0,1,.642.12,1.108,1.108,0,0,0,.474.305c.313-.45.988-.434,1.108-.04a.514.514,0,0,1-.281.642c.514.578,1.654,0,1.478-1a.5.5,0,0,1-.8.177.474.474,0,0,0-.377-.329c.241-.088.345-.2.369-.337.056-.426.273-.506.651-.249.177-.12.112-.233-.08-.345s-.1-.337.169-.474.337-.145.337-.313a11.46,11.46,0,0,0-4.248.98m-.562-5.244.128-.153h.12Zm1.96-.715.594-.112-.426-.112Zm4.015-.514.137.1.4-.137.209.185-.257.072-.233-.137-.072.04.265.153.53-.088-.41-.313Zm3.461,1h.177V9.1h-.145Zm-9.4,9.5.474-.265-.169.345Zm6.079-.875.241-.137.177.193-.225.177Zm-.153,0,.482-.249.289.361-.4.225Zm3.285,1.14.41-.072.225.361ZM35.593,7.241c.137.337.442.474.956.321.056,0,.064,0,.048-.064l-.08-.225a.161.161,0,0,0-.257,0,.458.458,0,0,1-.667,0m-10.28,4.891q.072-.157,0-.217c-.072-.2,0-.313.193-.345a2.521,2.521,0,0,0,.41-.04l-.12.506a.153.153,0,0,1-.225.088q-.06-.084-.241,0m2.008,5.389-.048.185a.257.257,0,0,1,.161.1,1.7,1.7,0,0,1,.41-.185.812.812,0,0,1-.522-.1m4.634-9.717a.281.281,0,0,1,0,.377h.072l.209-.2-.177-.2Zm.2,0,.538.064-.353.128Zm3.421.867.112.193h.265Zm.3.49h0l-.08-.145h.265l.088.161h.048l-.04-.225h-.394Zm-2.827,2.755a1.791,1.791,0,0,0,.683-.426,1,1,0,0,0,.691.675v.072a5.718,5.718,0,0,0-1.373-.321m-7.332,1.927.964-.634-.12.7Zm5.26-1.293.249-.161.225.185-.209.145Zm1.606.072.474-.3.353.361-.466.281Zm.185,0,.281-.185.241.225-.265.2Zm.177,4.714.249.345.3-.257-.546-.088M30.292,3.57A2.289,2.289,0,0,1,30.9,3.4v-.41a.875.875,0,0,0-.6.578M29.072,6.446c.088,0,.161.056.161.12s-.072.12-.161.12a.12.12,0,0,1,0-.241m-3.8,5.742-.281.04v.112H25.1c.377,1.213,1.357,1.028,1.606,0l.128-.064c.739.474,1.526.072,1.984-.8H28.9c.2.642,1.911.49,2.249-.273h.1c.177.659,1.847.891,2.49.112h.024c.217,1.052,1.9,1.028,2.1.514,0,1.189,1.269,1.181,1.558,0H37.36c-.562.8-1.269.755-1.221-.241.8-.7-.8-1.076-.49-.072-.578.948-1.855.4-1.678-.883,0-.112,0-.2.193-.1.281.337.554.434.8.161a.177.177,0,0,1,.193-.112.554.554,0,0,1-.153-.353c-.1-.3-.265-.361-.482-.2s-.209.1-.3,0l-.12-.1c.305-.225.369-.474,0-.7-.112,0-.177-.128-.209-.265a.715.715,0,0,1-.241.345c-.321.137-.345.313-.088.53v.161a1.606,1.606,0,0,1-.618-.321c-.137-.112-.273-.072-.329.128s-.249.281-.225.249a.506.506,0,0,1,.153.313c.153.233.3.217.442.08.313-.3.907.088.1.924a.883.883,0,0,1-1.526-.522c.522-.434.048-.859-.353-.9a.53.53,0,0,0-.337.924c-.41.8-1.831,1.3-1.943,0,0-.385.1-.53.394-.434.369.225.61.153.723-.225a.506.506,0,0,1,.209-.249.546.546,0,0,1-.329-.209.426.426,0,0,0-.634.064.956.956,0,0,1-.49.225l-.056-.064c.329-.313.305-.538-.056-.683A.586.586,0,0,1,28.325,9a.723.723,0,0,1-.209.442c-.233.4-.048.634.49.594.651.137.1.8-.265.329-.353-.321-.642-.281-.867.1l-.145.265c.337.4.659.506.956-.048.2-.088.273-.064.225.072-.137,1.245-1.173,1.887-1.807.851.353-.273.185-.707-.369-.675a.426.426,0,0,0,.056.8c0,1.012-.843,1.2-1.173.321M35.93,11.031a.217.217,0,0,1,.241.353.217.217,0,1,1-.217-.2m-2.12-1.14a.241.241,0,1,0,0,.482.257.257,0,0,0,.257-.241.249.249,0,0,0-.257-.241m-2.578.209a.289.289,0,1,1-.29.127.289.289,0,0,1,.29-.127m-4.722,1.012a.193.193,0,0,1,0,.377.189.189,0,0,1,0-.377m10.834.361a.177.177,0,0,1,.177,0v.12a.185.185,0,0,1-.169,0s0-.072,0-.112m-3.269,5.622a9.155,9.155,0,0,1,1.446.434l.112-.329a.908.908,0,0,1-.562-.426,1.951,1.951,0,0,1-1,.321M26.919,8.887h.3l.964-.3.112-.225h-.2l-1.052.353ZM25.257,14.6l.337-.554h.916l-.554.667Zm.2-.137.442.072.313-.385h-.554Zm3.726-1.534.562.2.313-.377-.482-.273Zm.2-.1.225-.217.289.177-.2.209Zm4.963.193.145.337.594.177.281-.217-.064-.161-.739-.3Zm-4.843,4.794.418-.385.4.233-.4.305Zm.153,0,.249-.241.241.128-.249.217Zm2.409.185.273-.265.313.313ZM31.481,3.868v.289c.12.41.369,0,.394-.209a1.671,1.671,0,0,0-.385-.1M25.353,7.53c-.1.048-.12.153-.056.313a.1.1,0,0,0,.161,0V7.618c0-.08-.04-.128-.112-.088m.161,9.316a.289.289,0,0,1,.329-.289c.289.064.41.273.361.618v.209c.4.41.755.4,1.044-.048l.088.088c-.45.506-.891.667-1.333.1a.731.731,0,0,1-.458-.675m.137.08a.9.9,0,0,0,.177.265c.137.1.161,0,.169-.1a.418.418,0,0,0-.064-.329c0-.177-.385-.088-.281.161m1.686.3v.3a1.413,1.413,0,0,0,1.791-.98c.361.8,1.695.562,2.12-.466.048-.088.1-.1.153,0a1.189,1.189,0,0,0,1.952.466,1.076,1.076,0,0,0,1.759.305.988.988,0,0,0,1.743,0c.137-.321-.145-.843-.434-.522a.755.755,0,0,0-.2.651.434.434,0,0,1-.723-.04c-.209-.153-.233-.434-.128-.8h.128c.112.241.265.289.442.137a.851.851,0,0,1,.193-.177v-.12a.257.257,0,0,1-.1-.177c-.088-.128-.185-.145-.281,0a.233.233,0,0,1-.2.08l-.072-.048a.265.265,0,0,1-.329.241.821.821,0,0,1-.988.907,1,1,0,0,1-.554-.53V16.2c.361-.305.41-.755-.145-.9a.426.426,0,0,0-.249.8c0,.522-.739.731-1.164.434a1.341,1.341,0,0,1-.482-.675v-.442a.161.161,0,0,1,.233-.12c.137.145.273.193.4.1a.731.731,0,0,1,.305-.369,1.991,1.991,0,0,1-.169-.313c-.12-.169-.289-.169-.514,0a.281.281,0,0,1-.257,0v-.249a.442.442,0,0,1,.249-.217c.128-.056.128-.153,0-.273a.683.683,0,0,1-.514-.241.691.691,0,0,1-.418.225q-.289.133,0,.385c.193.169.169.281,0,.41l-.361-.169c-.193-.112-.281.088-.329.434a.45.45,0,0,1-.169.193c.112.12.185.241.289.345a.305.305,0,0,0,.442-.153c.04-.072.161-.128.345-.177-.233-.313-.161-.514.12-.618-.329.193-.281.578.1.642s.369-.466.072-.618a.361.361,0,0,1,.161.57.385.385,0,0,1-.45.056c-.056,1.4-1.293,1.9-1.791,1.173V16.3c.257,0,.361-.185.345-.49s-.5-.385-.8-.2a.394.394,0,0,0,0,.651c.088.891-.651,1.349-1.5.94m9.244-.8c.048-.088.265-.048.249.128a.546.546,0,0,1-.169.369c-.072.048-.1,0-.12-.04a.691.691,0,0,1,0-.458m-3.3-.8a.442.442,0,0,1,.337,0c.072.056,0,.257,0,.273a.385.385,0,0,1-.345-.056.137.137,0,0,1,.048-.209m-4.289.249a.321.321,0,0,1,.369,0,.153.153,0,0,1,0,.2.538.538,0,0,1-.169.1c-.128,0-.2,0-.241-.072a.169.169,0,0,1,0-.193M25.41,9.537c0,.04,0,.08.064.1s0,0,.056,0l.153-.2s-.048-.08-.088-.088-.12.12-.185.217m4.015-1.189.8-.088L30,8.116Zm1.124-.538h1.421a.265.265,0,0,1,0,.361H30.549a.394.394,0,0,1,0-.377M35.464,9l.377.177-.217-.2Zm-5.975,3.758.169-.177.209.137-.145.177Zm.209-.578a6.634,6.634,0,0,1,1.325-.145l-.61.5Zm.8.45.851.458.8-.482-.9-.506Zm.161,0,.626.329.642-.4-.642-.361Zm.08,0,.538.281.546-.353-.538-.3Zm.217-.048.329.209.289-.209-.305-.225Zm2.233.691a6.5,6.5,0,0,1,1.012.217l-.442-.594Zm2.971,5.421.249.418.209.112v-.04l-.177-.153-.153-.305.273-.056-.08-.153ZM31.2,4.719c0,.112.056.217.233.3a.566.566,0,0,1,.313.522.482.482,0,0,1,.514.217.442.442,0,0,0,.45.185.594.594,0,0,0-.329.313c-.177.273-.321.265-.755.2-.056.088.41.4.707.458a.594.594,0,0,0,.626-.153c-.426-.305,0-.8.418-.691s.642.466.137.8a.964.964,0,0,0,1.245.361V6.887c-.233.12-.482-.1-.747-.458a.715.715,0,0,0-.249-.257,1.277,1.277,0,0,0,.94,0,.747.747,0,0,0-.3-.707,6.81,6.81,0,0,0-3.212-.707M26.871,8.124a2.273,2.273,0,0,0,.345-.385.924.924,0,0,0,.45.1,4.706,4.706,0,0,0-.8.289M24.856,9.337v.442c.1-.08.209-.161.321-.233l.3-.514.345.1.337-.377.273.04a1.277,1.277,0,0,0,.3-.145l.233-.209,1.181-.345h.225a11.107,11.107,0,0,1,2.755-.345,9.782,9.782,0,0,1,6.32,2.032v-.3c-1.221-1.02-2.69-1.952-6.312-2.128a10.368,10.368,0,0,0-6.28,2.016m10.215,6.425c0-.12.088-.169.217-.137s.2.12.145.217a.249.249,0,0,1-.209.12.2.2,0,0,1-.153-.2M24.928,9.819l.289-.225.3.241-.554.41Zm.723-.064.418-.265a.249.249,0,0,0-.193-.064Zm-.739.715a10.994,10.994,0,0,1,12.472,0v-.241a10.7,10.7,0,0,0-12.488.04Zm5.863,1.317.426-.353.41.353Zm3.767.5a7.589,7.589,0,0,1,1.373.562.8.8,0,0,1-.233-.675,1.51,1.51,0,0,1-1.116.064ZM27.1,13.376l.908-.385.161.1-.056.305-.883.345-.225-.12Zm.964,4.746.225-.281.594-.128.385.193-.209.257-.634.177Zm-.177.048.249-.361.763-.225.506.265-.281.385c-.265.064-.53.128-.8.209Zm7.91,0,.651.353-.337.112ZM27.257,6.791a.482.482,0,0,1,.257-.225c.185-.08.305-.072.353,0h.313c-.169.41-.442.626-.9.394a.434.434,0,0,0,0-.193m7.766-.2c0-.1-.056-.2-.217-.329s-.072-.048-.161,0-.217,0-.369.072a.8.8,0,0,1-.337,0,5.623,5.623,0,0,1,.394.474.385.385,0,0,0,.554.048c0-.128.048-.217.137-.217m-6.352,3.654a.217.217,0,1,1-.233.209.225.225,0,0,1,.233-.209M27.136,15.89a.177.177,0,0,1,.209.161.233.233,0,0,1-.233.193.177.177,0,0,1-.209-.161.233.233,0,0,1,.233-.193M25.924,9.337l.233.1.377-.466H26.2Zm.12-.056.145.064.177-.225h-.128ZM28.4,8.172l.233.1.385-.241Zm1.052-.209.747-.1-.257.209Zm4.152.345.281.273.2.056h-.1l-.169-.217.257-.088.988.281h0l-1.189-.361ZM26.927,13.32l-.1.442.353.193,1.06-.41.145-.45-.329-.281Zm0,.377.1-.329.964-.418.217.153-.064.361-.916.329Zm1.943-.707,1.044.313.4-.578-.8-.442Zm.691-.578-.442.53.626.2.369-.426ZM25.843,18.95l.53-.337.377.1-.169.466-.634.345v-.112l.538-.305.1-.281h-.241l-.466.273Zm1-.321.169-.385.394-.169.353.137-.08.209-.257.313Zm.193-.112.177-.281.369.056-.193.369ZM32.059,17.3l.321.273.41-.209ZM35.472,6.7c.072.072.064.153,0,.273.193.329.482.321.8.153a.386.386,0,0,1-.193-.305c-.12-.225-.329-.265-.618-.12M35.9,11.28s.064.048.064.1,0,.1-.064.1-.064,0-.064-.1,0-.1.064-.1m-8.521,5.8a.859.859,0,0,0,1.389-.747c-.1,0-.145-.185-.161-.482a.554.554,0,0,0-.313.217.6.6,0,0,1-.634.337.691.691,0,0,1-.281.675m8.151-1.51a.514.514,0,0,0,.185-.9.153.153,0,0,1-.088-.2l.45.233v.8a.077.077,0,0,1-.1.072.185.185,0,0,0-.217,0,.217.217,0,0,1-.209.1Zm.988-6.16h.2V9.5h-.193Zm-8.055,2.779a.883.883,0,0,0,.418-.458.675.675,0,0,0,.49.241Zm3.887.434.723-.418.626.546-.731.45Zm.153,0,.538-.345.394.418-.5.313Zm.289,0,.185.185.209-.137L33,12.485Zm-7.3,2.562.04.225a10.039,10.039,0,0,1,11.324-.3v-.273a9.734,9.734,0,0,0-11.364.345m2.032,2.843.53-.2-.241.345Zm2.939-.442.289-.289a9.942,9.942,0,0,1,1.2,0l.217.249-.345-.161h-.972Zm4.489.233.45.169-.329.1ZM31.1,3.354h.249V3.04c-.08-.225-.169-.241-.2-.048ZM26.59,11.336a.088.088,0,1,1-.065.029.088.088,0,0,1,.065-.029m10.673.1c-.177-.353-.394-.345-.618-.137,0,.586.289.667.618.514-.12-.064-.12-.185,0-.377M28.943,17.3a11.316,11.316,0,0,1,4.819-.1,1.173,1.173,0,0,1-.514-.53,1.309,1.309,0,0,1-1.9-.474c-.546.891-1.47,1.148-2.088.634ZM26.47,8.831l.193-.088-.048.137Zm9.79.2.313.177h-.217ZM25.538,14.356l.345.064.225-.257h-.426Zm1.221-1.148-.12.715.4.241,1.438-.57.2-.546-.442-.458Zm.128.04-.128.49.394.241,1.132-.458.145-.458-.369-.321Zm7.413-.257.161.385.651.209.345-.233-.088-.257-.8-.3Zm-.12-.064.442-.169.8.337.112.329-.458.273-.691-.241ZM29.2,18.243l.265-.305.377.193Zm1.606-.626Zm-.169.04.233.145h.851l.329-.12-.257-.209h-.932Zm-.265-13.58.257.337a.618.618,0,0,0,.321,0V3.9a1,1,0,0,0-.562.177M26.108,7.931a.8.8,0,0,0,.715-.562.8.8,0,0,1-.538.193Zm10.36-.8a.8.8,0,0,1,.217.4c-.8.289-1.116,0-1.229-.546a.659.659,0,0,1-.369-.048.916.916,0,0,1-1.606-.12c.8-.8-.964-.883-.442-.1-.177.554-1.566.137-1.534-.522,0-.056.072-.056.12-.056.169.345.466.209.8-.161L32.011,5.6c-.281-.08-.474,0-.482.394a.241.241,0,0,1-.112.177c.353-.594-.675-.659-.418-.08-.1,0-.161-.088-.193-.249-.225-.45-.506-.249-.8.257a.578.578,0,0,0,.883.161c-.265.731-.964,1.092-1.526.506.546-.851-1.349-.651-.554.088-.538.964-1.686.8-1.767.161h-.08c-.048.8-.908,1.261-1.381.747l-.12.12c.667.739,1.173.3,1.662-.305.61.369,1.269.137,1.992-.546a1.446,1.446,0,0,0,2.08-.586,1.325,1.325,0,0,0,2.032.514,1.349,1.349,0,0,0,2.064.265.964.964,0,0,0,1.389.586l.145.161a.932.932,0,0,0,.241.49l.056-.626q-.313-.1-.313-.361l.169-.161V7.16l-.2-.289Zm-7.477-.755c.145,0,.265.072.265.161s-.12.161-.265.161-.265-.072-.265-.161.12-.161.265-.161m4.3,0c-.1,0-.185.056-.185.137s.08.128.185.128.185-.056.185-.128-.08-.137-.185-.137M29.144,15.93l.048-.08a.072.072,0,0,1,.112,0l.064.12c0,.056,0,.1-.12.088s-.12-.056-.1-.112M33.16,7.963l.626.145-.321.12Zm-6.995,6.69.723-.418L26.6,14.1Zm2.409-1.084.169-.45.8.217a5.172,5.172,0,0,0-1,.233m2.811-1.526a6.65,6.65,0,0,1,1.606.145l-.691.385Zm4.441,1,.193.418.651.072Zm.53.739.241.458.249-.1-.2-.353Zm-1.606,4.658.353-.225.145.394Z" transform="translate(-4.85 -0.141)"/><path class="d" d="M27.5,8.679a1.606,1.606,0,0,1-.313.385,2.409,2.409,0,0,1,.8-.289.875.875,0,0,1-.466-.1m1.9-.618a.562.562,0,0,1-.249.418,5.686,5.686,0,0,1,1.357-.169v-.1A1.2,1.2,0,0,1,29.4,8.061m-2.281.249a.867.867,0,0,1-.546.193l-.185.394a.851.851,0,0,0,.731-.586M36.89,8.5l-.08-.257c-.217-.305-.466.41-.924-.04.153.369.482.474,1,.3m-7.854-.651c-.924-.843,1.269-1.164.723-.1.482.369.924.241,1.309-.377-.466.265-.659-.193-1.036-.273.522-.2.4-.715.972-.562-.12-.755.337-.153.45-.98,0,.538.683.418.6.964.466-.153.458.41.9.4-.345.177-.209.7-1.052.514.353.385,1.06.642,1.349.313-.675-1.116,1.606-.8.6.112a.924.924,0,0,0,1.245.337V7.852c-.385.185-.659-.345-.956-.675a1.534,1.534,0,0,0,.907-.072c-.088-.233,0-.474-.265-.659-1.711-1.606-5.437-1.02-6.979.586.241.056.169.281.145.353.305,0,.361.225.8.1-.434.61-1.052.94-1.293.5l-.088.048c.313.634,1.06.586,1.695-.177M26.257,9.314a.8.8,0,0,1-.1.273,3.405,3.405,0,0,1,.634-.329,1.261,1.261,0,0,1-.538.056m7.228-1.285A1.349,1.349,0,0,1,31.493,7.6a1.654,1.654,0,0,1-.667.683,11.581,11.581,0,0,1,3.686.426c-.377-.257-.7-.2-1.028-.675m3.574,1.43-.546-.345a.964.964,0,0,1-1-.618.8.8,0,0,1-.45.361,7.854,7.854,0,0,1,2.16,1.06.514.514,0,0,0-.153-.482m-8.3,3.694.891-.209a.691.691,0,0,1-.49-.233.8.8,0,0,1-.4.442m-2.642-2.3.145,1.357a.972.972,0,0,1,.562-.337c.426-.048.8.345.418.8.353.554,1.405.4,1.486-.747-.1.137-.257.345-.394.377-.377.1-.377-.08-.578-.281a.6.6,0,0,0-.3-.169c.506-.45.217-.8.8-.8-.12-.442.056-.506.273-.8a1.493,1.493,0,0,0,.145-.385,1.518,1.518,0,0,0,.305.361c.538.1.554.361.442.667a.843.843,0,0,1,.61-.225c.3,0,.466.321.739.353-.4.161-.257.6-.594.667a.418.418,0,0,1-.329,0c-.257-.233-.6-.161-.434.442.321.755,1.181.634,1.719-.185-.707-1.454,1.879-1.213.875,0,.586,1.357,2.016.257,1.727-.514-.217-.064-.361.241-.634.2s-.153-.482-.546-.6c.418-.064.394-.522.651-.466a3.327,3.327,0,0,1,.7.385v-.04a.466.466,0,0,1-.217-.329c.112-.3.265-.064.57-.626h.088c0,.217.514.305.466.675a.45.45,0,0,1-.233.361c.1.1.193,0,.4-.112.586-.1.3.506.8.8-.578,0-.667.8-1.309.2-.137.634.707,1.606,1.293.691-.153-.723.41-1.076.867-.594l-.177-1.229a11.107,11.107,0,0,0-10.312.128m4.915,1.887h.8l-.418-.353Zm3.8.442v.056a7.043,7.043,0,0,1,1.365.554.8.8,0,0,1-.225-.667,1.478,1.478,0,0,1-1.108.056M26.457,12.6h-.064a4.072,4.072,0,0,0,.08.964.8.8,0,0,0,.273-.683.377.377,0,0,1-.289-.249m7.629-.153a1.606,1.606,0,0,1-.675.426,5.622,5.622,0,0,1,1.373.321v-.1a1,1,0,0,1-.7-.667m1.976,5.051c-.1-.048-.177-.193-.265-.289a.618.618,0,0,0,.273.763.361.361,0,0,0,0-.474Zm-.618.369a1.646,1.646,0,0,1-.988.321,9.269,9.269,0,0,1,1.438.442l.12-.337a.924.924,0,0,1-.57-.426m.626-2.241c.3.369.233.691-.185.891v.1a.233.233,0,0,0,.209-.1.193.193,0,0,1,.225,0c.048,0,.08,0,.1-.072v-.8a4.7,4.7,0,0,0-.45-.225.169.169,0,0,0,.088.209M27.63,18.485v.185a.281.281,0,0,1,.153.1,2.538,2.538,0,0,1,.4-.177.683.683,0,0,1-.514-.1m2.152-1.14c.675.683,1.687-.225,1.47-1-.233.321-.49.369-.763.177a.5.5,0,0,0-.369-.337.458.458,0,0,0,.369-.4c.072-.377.305-.4.651-.185.153-.112.1-.209,0-.305a.322.322,0,0,1,.128-.506c.257-.1.321-.185.313-.305a11.155,11.155,0,0,0-4.248,1,.522.522,0,0,0,.377.394.353.353,0,0,1,.153.434c.691-.145.562.257,1.124.442.634-.8,1.606,0,.8.594m5.461-.1c-.458.153-.739-.08-.875-.651-.064.3-.177.514-.369.53v.217a.883.883,0,0,0,.707.522,1.148,1.148,0,0,0,.538-.618m-3.14-2.409c.313.048.321.225-.04.57-.137.088-.128.265.08.177s.458-.161.586.064a1.2,1.2,0,0,0,.337.329.538.538,0,0,0-.45.289c-.1.249-.289.225-.522.048-.056-.064-.1-.056-.12,0a1.605,1.605,0,0,0,0,.474c.3.932,1.349.875,1.43.257-.8-.843.651-1.245.851-.642.458,0,.394-.353.634-.281s.265.337.442.337c.153-.169-.265-.361-.12-.554s.514-.153.61-.538a9.509,9.509,0,0,0-4.224-.875,1.277,1.277,0,0,0,.426.337m1.462,2.795a1.293,1.293,0,0,1-1.887-.474c-.659,1.036-1.606,1.052-2.088.634l-.313.5a11.468,11.468,0,0,1,4.819-.1,1.108,1.108,0,0,1-.522-.53m-5.622-.273a.675.675,0,0,1-.3.675.867.867,0,0,0,1.405-.747l-.161-.49c-.442.112-.321.642-.948.562" transform="translate(-5.143 -1.082)"/><path class="n" d="M4.9,97.705H.236v.056c.964.385.843,1.791.843,2.658v7.228c0,.859.12,2.281-.859,2.626v.064H4.059v-.064c-1.02-.57-1-1.341-1-2.409V99.207a7.46,7.46,0,0,1,1.349-.12c1.534,0,2.731.675,2.731,2.409,0,1.847-1.791,2.859-3.445,2.955a3.14,3.14,0,0,0,1.405.273c2.168,0,4.224-1.405,4.224-3.614s-1.9-3.365-4.4-3.365m16.367.056v-.056H17.6V97.8c.964.369.851,1.775.851,2.634v5.782a2.522,2.522,0,0,1-.41,1.751,3.381,3.381,0,0,1-2.8,1.349c-1.976,0-3.052-1.2-3.052-3.75v-5.132c0-.859-.12-2.265.843-2.634v-.056H9.375V97.8c.98.369.843,1.775.843,2.634v5.132c0,1.381,0,2.674.98,3.791a4.746,4.746,0,0,0,3.485,1.341,4.819,4.819,0,0,0,3.767-1.606v1.269h2.819V110.3c-.98-.361-.859-1.767-.859-2.626v-7.228c0-.883-.12-2.289.859-2.658M32.512,107.88a8.448,8.448,0,0,1-4.088,1.2c-2.963,0-4.883-2.514-4.883-5.341a4.388,4.388,0,0,1,4.5-4.722,6.626,6.626,0,0,1,3.55,1.092V97.882A15.074,15.074,0,0,0,28.1,97.4a6.36,6.36,0,0,0-6.746,6.609c0,4.112,2.8,6.65,7.34,6.65a6.738,6.738,0,0,0,2.9-.578l.988-2.225Z" transform="translate(-0.043 -19.179)"/><path class="n" d="M48.844,107.664l-2.763-3.477a3.722,3.722,0,0,0,3.052-3.389c0-1.695-1.405-3.092-3.975-3.092H40.58v.056c.98.369.843,1.775.843,2.658v7.228c0,.859.137,2.281-.843,2.626v.064h3.67v-.064c-.98-.345-.859-1.743-.859-2.626V99.054a10.274,10.274,0,0,1,1.3-.161,2.208,2.208,0,0,1,2.482,2.136c0,1.807-1.791,2.522-3.325,2.747l1.767,2.714,2.345,2.9a2.522,2.522,0,0,0,2.233.964H51.96a13.532,13.532,0,0,1-3.116-2.69m5.268-7.131c0-1.325,1.381-1.751,2.482-1.751a4.353,4.353,0,0,1,3.012,1.213V97.826a9.638,9.638,0,0,0-2.859-.426c-2.345,0-4.819.924-4.819,3.341,0,4.08,6.609,3.542,6.609,6.537,0,1.341-1.654,2-2.747,2a6.65,6.65,0,0,1-4.208-1.606l.554,2.409a10.047,10.047,0,0,0,3.445.578c3,0,5.148-1.919,5.148-4.015,0-3.558-6.609-3.518-6.609-6.152" transform="translate(-7.99 -19.179)"/></g></g></svg>